<?xml version="1.0" standalone="no"?>
<!DOCTYPE svg PUBLIC "-//W3C//DTD SVG 1.1//EN" "http://www.w3.org/Graphics/SVG/1.1/DTD/svg11.dtd" >
<svg xmlns="http://www.w3.org/2000/svg">
<metadata>
This is a custom SVG webfont generated by Font Squirrel.
Copyright   :  CybaPee  Apostrophic Labs All rights reserved 
Designer    : CybaPee  Apostrophe
</metadata>
<defs>
<font id="LadyIceRegular" horiz-adv-x="757" >
<font-face units-per-em="2048" ascent="1638" descent="-410" />
<missing-glyph horiz-adv-x="512" />
<glyph unicode=" "  horiz-adv-x="512" />
<glyph unicode="&#x09;" horiz-adv-x="512" />
<glyph unicode="&#xa0;" horiz-adv-x="512" />
<glyph unicode="!" horiz-adv-x="348" d="M102 0h144v190h-144v-190zM102 410h144v1065h-144v-1065z" />
<glyph unicode="&#x22;" horiz-adv-x="585" d="M102 1061h60l86 452h-146v-452zM336 1061h59l88 452h-147v-452z" />
<glyph unicode="#" horiz-adv-x="962" d="M102 422h103v-422h143v422h266v-422h144v422h102v143h-102v266h102v144h-102v500h-144v-500h-266v500h-143v-500h-103v-144h103v-266h-103v-143zM348 565v266h266v-266h-266z" />
<glyph unicode="$" horiz-adv-x="659" d="M43 1198q0 -57 21.5 -107.5t59.5 -88t88 -59t107 -21.5q55 0 94.5 -39t39.5 -95v-512q0 -55 -40 -94t-94 -39q-49 0 -80.5 29l-64.5 61l-100 -102q39 -39 80 -72.5t94 -50.5v-108h143l-2 110q45 12 84 37t65.5 60.5t42 78.5t15.5 90v512q0 57 -21.5 107.5t-59.5 88.5 t-88 59.5t-108 21.5q-55 0 -94 39t-39 94t39 94t94 39q49 0 81 -28.5t65 -61.5l100 102q-39 39 -80 73t-94 50v111h-143v-113q-92 -23 -148.5 -97.5t-56.5 -168.5z" />
<glyph unicode="%" horiz-adv-x="1280" d="M59 1187.5q0 -57.5 21.5 -107.5t59.5 -88t88.5 -59.5t107.5 -21.5t107.5 21.5t88 59.5t59 88t21.5 107.5t-21.5 108t-59 88t-88 59t-107.5 21.5t-107.5 -21.5t-88.5 -59t-59.5 -88t-21.5 -108zM203 1188q0 55 40 94t93 39q55 0 94 -39t39 -94t-39 -94t-94 -39t-94 39 t-39 94zM373 20l137 -34l397 1468l-139 37zM668 276.5q0 -57.5 21.5 -107.5t59 -88t88 -59.5t107.5 -21.5t107.5 21.5t88.5 59.5t59.5 88t21.5 107.5t-21.5 107.5t-59.5 88t-88.5 59.5t-107.5 21.5t-107.5 -21.5t-88 -59.5t-59 -88t-21.5 -107.5zM811 276.5q0 55.5 40 94.5 t93 39q55 0 94 -39t39 -94.5t-39 -94.5t-94 -39t-94 39t-39 94.5z" />
<glyph unicode="&#x26;" horiz-adv-x="778" d="M102 276q0 -57 21.5 -107t59.5 -88t88.5 -59.5t107.5 -21.5q43 0 84 22.5t79 56.5t71 71l63 65l-101 102q-16 -16 -39.5 -44.5t-50 -57.5t-54.5 -50.5t-52 -21.5q-55 0 -94 39t-39 94q0 27 5 92.5t16.5 131t29.5 117t47 51.5h107v143h-72q-55 0 -94 39t-39 94v254 q0 55 40 94t93 39q55 0 94 -39t39 -94v-72h143v72q0 57 -21.5 107.5t-59 88.5t-88 59.5t-107.5 21.5t-107.5 -21.5t-88.5 -59.5t-59.5 -88.5t-21.5 -107.5v-254q0 -121 91 -205q-20 -20 -37 -83.5t-29 -138.5t-18.5 -143.5t-6.5 -97.5z" />
<glyph unicode="'" horiz-adv-x="348" d="M102 1061h58l86 452h-144v-452z" />
<glyph unicode="(" horiz-adv-x="491" d="M102 141q0 -57 21.5 -107t59.5 -87t88.5 -58.5t107.5 -21.5h72v141h-72q-55 0 -94 39t-39 94v1057q0 27 10 67t28.5 75.5t42 61t52.5 25.5h72v144h-72q-57 0 -107.5 -37t-88.5 -92.5t-59.5 -121t-21.5 -122.5v-1057z" />
<glyph unicode=")" horiz-adv-x="493" d="M43 0v-141h72q57 0 107 21.5t88 58t59.5 87t21.5 107.5v1157q0 57 -21.5 107.5t-59.5 88.5t-88 59.5t-107 21.5h-72v-144h72q55 0 94 -38.5t39 -94.5v-1157q0 -55 -39 -94t-94 -39h-72z" />
<glyph unicode="*" horiz-adv-x="1191" d="M43 1296q59 -10 118.5 -29.5t98.5 -66.5q29 25 52.5 40t50 23.5t60.5 11.5t83 3h8q2 -16 12 -31l-4 -6q-35 -35 -60.5 -56.5t-51 -33.5t-53 -18.5t-64.5 -8.5q1 -8 0 -15q0 -53 -25 -102q-29 -56 -63 -104q47 35 103 63q49 24 102 24q8 0 16 -1q2 39 8 66.5t19.5 52.5 t35 50.5t56.5 60.5l6 4q8 -4 15 -6.5t16 -4.5v-8q0 -49 -3.5 -83t-11.5 -60.5t-23.5 -50t-39.5 -52.5q47 -41 66.5 -100t27.5 -119q8 59 27.5 119t66.5 100q-25 29 -40 52.5t-23 50t-11.5 60.5t-3.5 83v6q18 6 31 13l6 -4q35 -35 56.5 -60.5t35 -50.5t19.5 -52.5t8 -66.5 q8 1 16 1q53 0 102 -24q56 -28 103 -63q-35 47 -63 104q-25 49 -25 102v15q-37 2 -64.5 8.5t-52 18.5t-50 33.5t-60.5 56.5l-6 6q8 14 12 31h8q49 0 83 -3t60.5 -11.5t50 -23.5t52.5 -40q41 47 99.5 66.5t117.5 29.5q-59 8 -117.5 26.5t-99.5 66.5q-29 -25 -52.5 -40.5 t-50 -22.5t-60.5 -10t-83 -3h-8q0 8 -4 15t-8 15l6 5q35 35 60.5 57t50 35.5t52 19.5t64.5 8q-1 7 0 15q0 52 25 102q29 57 63 105q-47 -37 -103 -65q-49 -24 -102 -24q-8 0 -16 1q-2 -39 -8 -67t-19.5 -52.5t-35 -50t-56.5 -60.5l-6 -6q-8 8 -31 14v9q0 47 3.5 80.5 t11.5 60t23.5 51.5t39.5 53q-47 39 -66.5 98.5t-27.5 116.5q-8 -57 -27.5 -116.5t-66.5 -98.5q25 -29 40 -53.5t23 -51t11.5 -60t3.5 -80.5v-9q-10 -4 -17.5 -6t-15.5 -6l-4 4q-35 35 -56.5 60.5t-35 50t-19.5 52.5t-8 67q-8 -1 -16 -1q-53 0 -102 24q-56 28 -103 65 q35 -47 63 -105q25 -50 25 -102v-15q37 -2 64.5 -8t53 -19.5t51 -36t60.5 -56.5l4 -5l-7 -14q-3 -6 -5 -16h-8q-49 0 -83 3t-60.5 10t-50 22.5t-52.5 40.5q-39 -47 -98.5 -66t-118.5 -27z" />
<glyph unicode="+" d="M102 608h205v-205h144v205h204v144h-204v204h-144v-204h-205v-144z" />
<glyph unicode="," horiz-adv-x="311" d="M70 0h61l-49 -276h57l86 292v160h-155v-176z" />
<glyph unicode="-" horiz-adv-x="475" d="M55 610h363v144h-363v-144z" />
<glyph unicode="." horiz-adv-x="305" d="M80 6h143v193h-143v-193z" />
<glyph unicode="/" horiz-adv-x="616" d="M41 20l137 -34l397 1468l-139 37z" />
<glyph unicode="0" d="M102 276q0 -57 21.5 -107t59.5 -88t88.5 -59.5t107.5 -21.5t107.5 21.5t88 59.5t59 88t21.5 107v922q0 57 -21.5 107.5t-59 88.5t-88 59.5t-107.5 21.5t-107.5 -21.5t-88.5 -59.5t-59.5 -88.5t-21.5 -107.5v-922zM246 276v922q0 55 40 94t93 39q55 0 94 -39t39 -94v-922 q0 -55 -39 -94t-94 -39t-94 39t-39 94z" />
<glyph unicode="1" horiz-adv-x="452" d="M37 1331h166v-1331h151l-2 1475h-315v-144z" />
<glyph unicode="2" horiz-adv-x="710" d="M84 1126h143v72q0 55 40 94t93 39q55 0 94.5 -39t39.5 -94v-254q0 -55 -39 -94t-95 -39q-57 0 -107 -21.5t-88 -59.5t-59.5 -88t-21.5 -107v-535h553v143h-410v392q0 55 39 94t94 39q57 0 107.5 21.5t88.5 59t59.5 88t21.5 107.5v254q0 57 -21.5 107.5t-59.5 88.5 t-88 59.5t-107.5 21.5t-107.5 -21.5t-88 -59.5t-59.5 -88.5t-21.5 -107.5v-72z" />
<glyph unicode="3" horiz-adv-x="702" d="M49 1126h144v72q0 55 39.5 94t93.5 39q55 0 94 -39t39 -94v-244q0 -55 -39 -94t-94 -39h-72l2 -174h72q55 0 94 -39t39 -94v-244q0 -55 -39 -94t-94 -39q-53 0 -93 39t-40 94v72h-144v-72q0 -57 21.5 -107t59.5 -87t88 -58.5t107.5 -21.5t107.5 21.5t88 58.5t59.5 87 t21.5 107v244q0 119 -90 205q4 6 8 15t-6 20q86 86 86 200v244q0 57 -21.5 107.5t-59.5 88.5t-88 59.5t-107.5 21.5t-107.5 -21.5t-88 -59.5t-59.5 -88.5t-21.5 -107.5v-72z" />
<glyph unicode="4" horiz-adv-x="770" d="M70 670h411v-670h148v670h51v143h-51v662h-148v-662h-270v655h-141v-798z" />
<glyph unicode="5" horiz-adv-x="698" d="M80 281q0 -57 21.5 -107.5t59.5 -88.5t88 -59.5t107.5 -21.5t107.5 21.5t88 59.5t59.5 88t21.5 108v282q0 45 -15.5 91t-43 83t-67.5 60.5t-87 25.5h-193v508l381 2v142h-524v-779h272q55 0 94 -39t39 -94v-282q0 -55 -38.5 -94.5t-94.5 -39.5q-53 0 -93 39t-40 95v71 h-143v-71z" />
<glyph unicode="6" horiz-adv-x="710" d="M102 276q0 -57 21.5 -107t59.5 -88t88.5 -59.5t107.5 -21.5t107.5 21.5t88 59.5t59 88t21.5 107v273q0 57 -21.5 107.5t-59 88t-88 59t-107.5 21.5q-68 0 -133 -34v407q0 55 40 94t93 39q51 0 82 -28l63 -62l101 102q-55 55 -108.5 93.5t-137.5 38.5q-57 0 -107.5 -21.5 t-88.5 -59.5t-59.5 -88.5t-21.5 -107.5v-922zM246 276v273q0 55 39 94t94 39t94 -39t39 -94v-273q0 -55 -39 -94t-94 -39t-94 39t-39 94z" />
<glyph unicode="7" horiz-adv-x="677" d="M49 1280h144v51h266v-227l-135 -545q-6 -29 -19 -73l-23 -88l-20 -76q-8 -33 -8 -37v-285h143v268q4 14 21 80l40 156l48 192l46 189l36 143q14 57 14 59v388h-553v-195z" />
<glyph unicode="8" horiz-adv-x="720" d="M92 1049q0 -70 33 -128.5t61 -103.5q-90 -86 -90 -205v-336q0 -57 21.5 -107t59.5 -88t88 -59.5t107.5 -21.5t107.5 21.5t88 59.5t59.5 88t21.5 107v336q0 119 -90 205q6 4 10 14h-4q-4 4 -6 7.5t-4 5.5q90 84 90 205v151q0 57 -21.5 107.5t-59.5 88.5t-88 59.5 t-107.5 21.5t-107.5 -21.5t-88 -59.5t-59.5 -88.5t-21.5 -107.5v-151zM236 1049v151q0 55 39.5 94t93.5 39q55 0 94 -39t39 -94v-151q0 -55 -39 -94.5t-94.5 -39.5t-94 39.5t-38.5 94.5zM240 276v336q0 55 38.5 94t94 39t94.5 -38.5t39 -94.5v-336q0 -55 -40 -94t-93 -39 q-55 0 -94 39t-39 94z" />
<glyph unicode="9" horiz-adv-x="729" d="M74 940q0 -57 21.5 -107.5t59.5 -88t88 -59t107 -21.5q70 0 135 34l-2 -422q0 -55 -38.5 -94t-94.5 -39q-49 0 -80.5 29l-64.5 61l-101 -102q55 -55 108.5 -93t137.5 -38q57 0 107.5 21.5t88.5 59.5t59.5 88t21.5 107v922q0 57 -21.5 107.5t-59.5 88.5t-88 59.5 t-107.5 21.5t-107.5 -21.5t-88 -59.5t-59.5 -88.5t-21.5 -107.5v-258zM217 940v258q0 55 40 94t93 39q55 0 94 -39t39 -94v-258q0 -55 -38.5 -94t-94 -39t-94.5 39t-39 94z" />
<glyph unicode=":" horiz-adv-x="323" d="M78 6h164v193h-164v-193zM88 743h164v195h-164v-195z" />
<glyph unicode=";" horiz-adv-x="342" d="M82 4h74l-50 -274h58l86 293v159h-168v-178zM84 745h174v193h-174v-193z" />
<glyph unicode="&#x3c;" horiz-adv-x="612" d="M102 686l308 -305l100 100l-205 205l205 205l-100 100z" />
<glyph unicode="=" d="M102 514h553v143h-553v-143zM102 772h553v143h-553v-143z" />
<glyph unicode="&#x3e;" horiz-adv-x="612" d="M102 481l103 -100l305 305l-305 307l-103 -102l205 -205z" />
<glyph unicode="?" horiz-adv-x="690" d="M35 1126h143v72q0 55 40 94t93 39q55 0 94 -39t39 -94v-467q0 -55 -38.5 -94t-94.5 -39h-92v-319h146v196q92 16 157.5 85t65.5 171v467q0 57 -21.5 107.5t-59.5 88.5t-88 59.5t-107.5 21.5t-107.5 -21.5t-88 -59.5t-59.5 -88.5t-21.5 -107.5v-72zM227 0h144v190h-144 v-190z" />
<glyph unicode="@" horiz-adv-x="1286" d="M82 459q20 -178 89 -299t162 -194t197.5 -104.5t196.5 -31.5q131 0 254 62.5t256 218.5l-59 79q-68 -74 -129.5 -123t-118 -78.5t-110.5 -40.5t-109 -11q-80 0 -166 25.5t-162 86t-131 160.5t-74 248q-6 50 -5 98q0 94 21 182q32 133 100 232.5t166.5 158t215.5 58.5 q174 0 277.5 -108.5t123.5 -295.5q6 -50 7 -97q0 -43 -6 -83q-11 -84 -34.5 -149.5t-56.5 -109.5t-63 -58q-18 0 -32.5 5t-19.5 27q-4 41 -8 71q-2 15 -2 31t2 34q2 33 3 77.5t12 116.5l20 268h-115l-4 -71q-16 45 -41.5 67.5t-52.5 31.5t-52.5 10t-39.5 1q-63 0 -116.5 -42 t-89.5 -110.5t-51 -159.5q-9 -51 -9 -103q0 -42 6 -86q8 -78 31.5 -132.5t55.5 -89t68.5 -50t73.5 -15.5q39 0 79 23.5t110 95.5q29 -41 50 -64.5t38.5 -36t32 -16.5t26.5 -4q59 0 121.5 52t109.5 165q20 53 33 109.5t17 109.5q3 43 3 81v19q-1 47 -7 82q-14 115 -56.5 209 t-107 162t-150.5 104.5t-188 36.5q-156 0 -274.5 -71.5t-195.5 -189.5t-109 -268q-20 -95 -20 -193q0 -56 7 -113zM457 560q4 71 24.5 131.5t55 100t84.5 39.5q39 0 66.5 -27.5t44 -69.5t22.5 -93q3 -26 3 -50.5t-3 -47.5q-4 -41 -14.5 -85t-30 -82t-49 -62.5t-72.5 -24.5 q-49 0 -79 40t-43 100q-10 46 -10 98q0 16 1 33z" />
<glyph unicode="A" horiz-adv-x="792" d="M86 817h51v-817h144v817h266v-817h143v1198q0 57 -21.5 107.5t-59.5 88.5t-88 59.5t-107.5 21.5t-107.5 -21.5t-88 -59.5t-59.5 -88.5t-21.5 -107.5v-237h-51v-144zM281 961v237q0 55 39.5 94t93.5 39q55 0 94 -39t39 -94v-237h-266z" />
<glyph unicode="B" horiz-adv-x="763" d="M72 817h51v-817h276q57 0 107.5 21.5t88.5 59.5t59.5 88t21.5 107v408q0 59 -24.5 111.5t-65.5 93.5q90 84 90 205v139l-10 53q-29 82 -99.5 135.5t-163.5 53.5h-280v-514h-51v-144zM264 1331h139q47 0 83 -30.5t46 -75.5v-131q0 -55 -38.5 -94t-94.5 -39h-133zM266 143 v674h133q55 0 94 -39t39 -94v-408q0 -55 -38.5 -94t-94.5 -39h-133z" />
<glyph unicode="C" horiz-adv-x="655" d="M102 276q0 -57 21.5 -107t59.5 -88t88.5 -59.5t107.5 -21.5q43 0 75.5 10t61.5 27.5t54 41.5l55 52l-101 102q-33 -33 -64.5 -61.5t-80.5 -28.5q-55 0 -94 39t-39 94v922q0 55 40 94t93 39q49 0 81 -28.5t64 -61.5l101 102q-55 55 -108.5 93.5t-137.5 38.5 q-57 0 -107.5 -21.5t-88.5 -59.5t-59.5 -88.5t-21.5 -107.5v-922z" />
<glyph unicode="D" horiz-adv-x="739" d="M47 1331h51v-1331h277q57 0 107 21.5t88 59.5t59.5 88t21.5 107v922q0 57 -21.5 107.5t-59.5 88.5t-88 59.5t-107 21.5h-328v-144zM242 143v1188h133q55 0 94 -39t39 -94v-922q0 -55 -39 -94t-94 -39h-133z" />
<glyph unicode="E" horiz-adv-x="679" d="M80 1331h51v-1331h502v143h-359v674h226v144h-226v370h359v144h-553v-144z" />
<glyph unicode="F" horiz-adv-x="667" d="M84 1331h51v-1331h144v819h225v144h-225v368h358v144h-553v-144z" />
<glyph unicode="G" horiz-adv-x="724" d="M86 276q0 -57 21.5 -107t59.5 -88t88 -59.5t107 -21.5l277 2v963h-240v-144h97v-676l-134 -2q-55 0 -94 39t-39 94v922q0 55 40 94t93 39q39 0 67 -10t49.5 -26.5t38.5 -36.5l34 -37l100 102q-31 27 -58.5 53.5t-60 48t-73.5 36t-97 14.5q-57 0 -107 -21.5t-88 -58.5 t-59.5 -88.5t-21.5 -108.5v-922z" />
<glyph unicode="H" horiz-adv-x="786" d="M80 817h51v-817h143v817h267v-817h143v1475h-143v-514h-267v514h-143v-514h-51v-144z" />
<glyph unicode="I" horiz-adv-x="358" d="M55 0h246v143h-51v1188h51v144h-246v-144h51v-1188h-51v-143z" />
<glyph unicode="J" horiz-adv-x="475" d="M41 0h72q57 0 107 21.5t88 59.5t59.5 88t21.5 107v1199h-330v-144h187v-1055q0 -55 -39 -94t-94 -39h-72v-143z" />
<glyph unicode="K" horiz-adv-x="770" d="M84 817h51v-817h144v817h133q55 0 94 -39t39 -94v-684h143v684q0 119 -90 205q41 41 65.5 93t24.5 112v381h-143v-381q0 -55 -39 -94t-94 -39h-133v514h-144v-514h-51v-144z" />
<glyph unicode="L" horiz-adv-x="589" d="M102 0h451v143h-307v1332h-144v-1475z" />
<glyph unicode="M" horiz-adv-x="1167" d="M102 0h144v1198q0 55 40 94t93 39q55 0 94 -39t39 -94v-1198h143v1198q0 55 40 94t93 39q55 0 94.5 -39t39.5 -94v-1198h143v1198q0 94 -55.5 169t-147.5 97h-143q-80 -18 -135 -80q-57 61 -131 80h-144q-47 -12 -85 -37.5t-64.5 -60.5t-42 -78t-15.5 -90v-1198z" />
<glyph unicode="N" horiz-adv-x="765" d="M102 0h152v1198q0 55 40 94t93 39q55 0 94 -39t39 -94v-1198h144v1198q0 94 -55.5 169t-147.5 97h-144q-47 -12 -84.5 -37.5t-64.5 -60.5t-42 -78t-15 -90v-1055h-9v-143z" />
<glyph unicode="O" horiz-adv-x="729" d="M90 276q0 -57 21.5 -107t59.5 -88t88 -59.5t107.5 -21.5t107.5 21.5t88 59.5t59.5 88t21.5 107v922q0 57 -21.5 107.5t-59.5 88.5t-88 59.5t-107.5 21.5t-107.5 -21.5t-88 -59.5t-59.5 -88.5t-21.5 -107.5v-922zM233 276v922q0 55 40 94t94 39q55 0 94 -39t39 -94v-922 q0 -55 -39 -94t-94.5 -39t-94.5 39t-39 94z" />
<glyph unicode="P" horiz-adv-x="724" d="M74 817h51v-817h143v817h133q57 0 107.5 21.5t88.5 59.5t59.5 88t21.5 108v104q0 57 -21.5 107.5t-59.5 88.5t-88 59.5t-108 21.5h-276v-514h-51v-144zM268 961v370h133q55 0 94.5 -39t39.5 -94v-104q0 -55 -39 -94t-95 -39h-133z" />
<glyph unicode="Q" horiz-adv-x="710" d="M76 276q0 -96 59.5 -170.5t151.5 -97.5q25 -92 99.5 -151.5t170.5 -59.5h72v144h-58q-41 0 -75.5 15t-59.5 58q86 29 139.5 99.5t53.5 162.5v922q0 57 -21.5 107.5t-59.5 88.5t-88 59.5t-107.5 21.5t-107.5 -21.5t-88 -59.5t-59.5 -88.5t-21.5 -107.5v-922zM219 276v922 q0 55 40 94t93 39q55 0 94 -39t39 -94v-922q0 -55 -38.5 -94t-94 -39t-94.5 39t-39 94z" />
<glyph unicode="R" horiz-adv-x="761" d="M63 819h52v-819h143v819h133q55 0 94 -39t39 -94v-686h144v686q0 119 -90 205q41 41 65.5 93t24.5 112v102q0 57 -21.5 107.5t-59.5 88.5t-88 59.5t-108 21.5h-276v-512h-52v-144zM258 963v368h133q55 0 94 -39t39 -94v-102q0 -55 -39 -94t-94 -39h-133z" />
<glyph unicode="S" horiz-adv-x="659" d="M49 1202.5q0 -57.5 21.5 -108t59.5 -88t88 -59t108 -21.5q55 0 94 -39t39 -94v-512q0 -55 -40 -94.5t-93 -39.5q-49 0 -81 29l-65 62l-100 -103q55 -55 108.5 -93t137.5 -38q57 0 107 21.5t88 59.5t59.5 88t21.5 108v512q0 57 -21.5 107t-59.5 88t-88 59.5t-107 21.5 q-55 0 -94 39t-39 94t38.5 94t94.5 39q49 0 80.5 -28.5t64.5 -61.5l100 103q-55 55 -108 93t-137 38q-57 0 -107.5 -21.5t-88.5 -59.5t-59.5 -88t-21.5 -107.5z" />
<glyph unicode="T" horiz-adv-x="649" d="M45 1331h203v-1331h147v1331h203v144h-553v-144z" />
<glyph unicode="U" d="M102 276q0 -57 21.5 -107t59.5 -88t88.5 -59.5t107.5 -21.5h276v1475h-143v-1332h-133q-55 0 -94 39t-39 94v1199h-144v-1199z" />
<glyph unicode="V" horiz-adv-x="727" d="M86 340q0 -61 32 -120.5t76 -106.5t92 -79t81 -38q47 8 96 46t88 89t63.5 107.5t24.5 101.5v1141h-143v-1141q0 -14 -13.5 -40t-32.5 -54l-40 -57l-35 -46q-20 16 -46 42t-47.5 53.5t-37 54t-15.5 47.5v1141h-143v-1141z" />
<glyph unicode="W" horiz-adv-x="1167" d="M102 276q0 -94 56.5 -168.5t148.5 -97.5h144q74 18 133 80q55 -61 133 -80h143q92 23 148.5 97.5t56.5 168.5v1199h-143v-1199q0 -55 -39 -94t-94.5 -39t-94.5 39t-39 94v1199h-143v-1199q0 -55 -39 -94t-94 -39t-94 39t-39 94v1199h-144v-1199z" />
<glyph unicode="X" d="M102 0h144v690q0 55 39 94t94 39t94 -39t39 -94v-485h2v-205h141v690q0 119 -90 205q41 41 65.5 93t24.5 112v375h-143v-375q0 -55 -39 -94t-94 -39t-94 38.5t-39 94.5v375h-144v-375q0 -121 91 -205q-41 -41 -66 -93t-25 -112v-690z" />
<glyph unicode="Y" horiz-adv-x="710" d="M80 1094q0 -94 56.5 -169t148.5 -98v-827h143v827q92 23 148.5 97.5t56.5 169.5v381h-144v-381q0 -55 -38.5 -94t-94 -39t-94.5 38.5t-39 94.5v381h-143v-381z" />
<glyph unicode="Z" d="M102 0h553v143h-409v117l409 819v396h-553v-144h410v-219l-410 -819v-293z" />
<glyph unicode="[" horiz-adv-x="471" d="M92 -141h348v141h-204v1434h204v143h-348v-1718z" />
<glyph unicode="\" horiz-adv-x="573" d="M55 1456l340 -1468l140 30l-340 1471z" />
<glyph unicode="]" horiz-adv-x="552" d="M102 0v-141h349v1718h-349v-143h205v-1434h-205z" />
<glyph unicode="^" horiz-adv-x="550" d="M102 1300l101 -100l73 72l70 -72l103 100l-173 173z" />
<glyph unicode="_" horiz-adv-x="1167" d="M102 -162v-143h963v143h-963z" />
<glyph unicode="`" horiz-adv-x="497" d="M102 1503l191 -272l102 100l-190 273z" />
<glyph unicode="a" horiz-adv-x="718" d="M70 276.5q0 -57.5 21.5 -107.5t59 -88t88 -59.5t107.5 -21.5q80 0 146 41v-41h131v686q0 57 -21.5 107.5t-59.5 88.5t-88.5 59.5t-107.5 21.5q-84 0 -137 -38t-109 -94l101 -102q33 33 64.5 61.5t80.5 28.5q55 0 94 -39t39 -94v-133h-133q-57 0 -107.5 -21.5t-88 -59.5 t-59 -88t-21.5 -107.5zM213 276.5q0 55.5 39 94.5t94 39h141v-134q0 -55 -43 -94t-98 -39t-94 39t-39 94.5z" />
<glyph unicode="b" horiz-adv-x="739" d="M102 0h277q57 0 107.5 21.5t88 59.5t59 88t21.5 107v410q0 57 -21.5 107.5t-59 88.5t-88 59.5t-107.5 21.5h-133v512h-144v-1475zM246 143v676h133q55 0 94 -39t39 -94v-410q0 -55 -39 -94t-94 -39h-133z" />
<glyph unicode="c" horiz-adv-x="628" d="M78 276q0 -57 21.5 -107t59.5 -88t88 -59.5t107 -21.5q43 0 76 10t61.5 27.5t54.5 41.5l54 52l-100 102q-33 -33 -65 -61.5t-81 -28.5q-55 0 -94 39t-39 94v410q0 55 39 94t94 39q49 0 81 -28.5t65 -61.5l100 102q-55 55 -108.5 93.5t-137.5 38.5q-57 0 -107 -21.5 t-88 -59.5t-59.5 -88.5t-21.5 -107.5v-410z" />
<glyph unicode="d" horiz-adv-x="735" d="M80 276q0 -57 21.5 -107t59.5 -88t88 -59.5t107 -21.5q78 0 142 39v-39h135v1475h-144v-512h-133q-57 0 -107 -21.5t-88 -59.5t-59.5 -88.5t-21.5 -107.5v-410zM223 276v410q0 55 39 94t94 39h133v-543q0 -55 -38.5 -94t-94 -39t-94.5 39t-39 94z" />
<glyph unicode="e" horiz-adv-x="714" d="M80 276q0 -57 21.5 -107t59.5 -88t88 -59.5t107 -21.5h244v143h-244q-55 0 -94 39t-39 94v134h410v276q0 57 -21.5 107.5t-59.5 88.5t-88 59.5t-107.5 21.5t-107.5 -21.5t-88 -59.5t-59.5 -88.5t-21.5 -107.5v-410zM223 553v133q0 55 39 94t94.5 39t94 -39t38.5 -94v-133 h-266z" />
<glyph unicode="f" horiz-adv-x="489" d="M102 0h144v823h205v144h-205v231q0 55 40 94t93 39h72v144h-72q-57 0 -107.5 -21.5t-88.5 -59.5t-59.5 -88.5t-21.5 -107.5v-1198z" />
<glyph unicode="g" horiz-adv-x="720" d="M84 270q0 -59 21.5 -108t59.5 -86t88 -57.5t107 -20.5q68 0 134 31v-164q0 -55 -39 -94t-95 -39q-49 0 -80.5 28.5t-64.5 61.5l-100 -103q55 -55 108 -93t137 -38q57 0 107.5 21.5t88.5 59.5t59.5 88t21.5 108v825q0 57 -21.5 107.5t-59.5 88.5t-88 59.5t-107.5 21.5 t-107.5 -21.5t-88 -59.5t-59.5 -88t-21.5 -108v-420zM227 270v420q0 55 39 94t94.5 39t94.5 -39t39 -94v-420q0 -55 -39 -94t-94.5 -39t-94.5 39t-39 94z" />
<glyph unicode="h" horiz-adv-x="729" d="M102 0h144v819h133q55 0 94 -39t39 -94v-686h143v686q0 57 -21.5 107.5t-59 88.5t-88 59.5t-107.5 21.5h-133v512h-144v-1475z" />
<glyph unicode="i" horiz-adv-x="356" d="M102 1251h144v195h-144v-195zM111 0h143v963h-143v-963z" />
<glyph unicode="j" horiz-adv-x="319" d="M-104 -260v-143h71q53 0 102.5 21.5t86.5 59t59.5 88t22.5 107.5v1090h-144v-1090q0 -55 -40 -94t-87 -39h-71zM92 1235h144v195h-144v-195z" />
<glyph unicode="k" horiz-adv-x="718" d="M88 0h143v463h134q55 0 94 -39t39 -94v-330h143v330q0 119 -90 205q41 41 65.5 93t24.5 111v217h-143v-217q0 -55 -39 -94t-94 -39h-134v869h-143v-1475z" />
<glyph unicode="l" horiz-adv-x="348" d="M102 0h144v1475h-144v-1475z" />
<glyph unicode="m" horiz-adv-x="1167" d="M102 0h144v694q0 55 39 94t94 39t94 -38.5t39 -94.5v-694h143v694q0 55 39 94t94.5 39t94.5 -38.5t39 -94.5v-694h143v694q0 94 -56.5 169t-148.5 98h-143q-78 -18 -133 -80q-57 61 -133 80h-144q-92 -23 -148.5 -98t-56.5 -169v-694z" />
<glyph unicode="n" horiz-adv-x="724" d="M88 0h143v694q0 55 39 94t94.5 39t94.5 -38.5t39 -94.5v-694h143v694q0 94 -56.5 169t-148.5 98h-143q-92 -23 -148.5 -98t-56.5 -169v-694z" />
<glyph unicode="o" horiz-adv-x="714" d="M84 276q0 -57 21.5 -107t59.5 -88t88 -59.5t107.5 -21.5t107.5 21.5t88 59.5t59.5 88t21.5 107v410q0 57 -21.5 107.5t-59.5 88.5t-88 59.5t-107.5 21.5t-107.5 -21.5t-88 -59.5t-59.5 -88.5t-21.5 -107.5v-410zM227 276v410q0 55 39 94t94.5 39t94.5 -39t39 -94v-410 q0 -55 -39 -94t-94.5 -39t-94.5 39t-39 94z" />
<glyph unicode="p" horiz-adv-x="724" d="M102 -203h2v-205h142v408h133q57 0 107.5 21.5t88 59.5t59 88t21.5 107v410q0 57 -21.5 107.5t-59 88.5t-88 59.5t-107.5 21.5h-277v-1166zM246 143v676h133q55 0 94 -39t39 -94v-410q0 -55 -39 -94t-94 -39h-133z" />
<glyph unicode="q" horiz-adv-x="735" d="M80 276q0 -57 21.5 -107t59.5 -88t88 -59.5t107 -21.5h133v-406h142v205h2v1164h-277q-57 0 -107 -21.5t-88 -59.5t-59.5 -88.5t-21.5 -107.5v-410zM223 276v410q0 55 39 94t94 39h133v-676h-133q-55 0 -94 39t-39 94z" />
<glyph unicode="r" horiz-adv-x="608" d="M86 0h143v686q0 55 39 94t94 39q51 0 82 -28l64 -62l100 102q-39 39 -80 73t-94 50h-143q-47 -12 -84 -37.5t-64.5 -61.5t-42 -79t-14.5 -90v-686z" />
<glyph unicode="s" horiz-adv-x="679" d="M68 686q0 -57 21.5 -107.5t59 -88t88 -59t107.5 -21.5q55 0 94 -39t39 -94.5t-39 -94.5t-94 -39q-49 0 -81 29l-64 61l-101 -102q55 -55 108.5 -93t137.5 -38q57 0 107.5 21.5t88.5 59.5t59.5 88t21.5 107.5t-21.5 107.5t-59.5 88t-88.5 59.5t-107.5 21.5q-55 0 -94 39 t-39 94t39 94t94 39q51 0 82 -28l63 -62l101 102q-55 55 -108.5 93.5t-137.5 38.5q-57 0 -107.5 -21.5t-88 -59.5t-59 -88.5t-21.5 -107.5z" />
<glyph unicode="t" horiz-adv-x="487" d="M92 276q0 -57 21.5 -107t59.5 -88t88 -59.5t108 -21.5h71v143h-71q-55 0 -94 39t-39 94v543h204v144h-204v512h-144v-1199z" />
<glyph unicode="u" horiz-adv-x="733" d="M78 276q0 -57 21.5 -107t59.5 -88t88 -59.5t107 -21.5h277v963h-144v-820h-133q-55 0 -94 39t-39 94v687h-143v-687z" />
<glyph unicode="v" d="M102 340q0 -47 29 -104.5t71 -107.5t91 -87t90 -43l6 -4q45 8 92 47t86 90t63.5 107.5t24.5 101.5v627h-143v-627q0 -14 -13.5 -40t-32.5 -54l-40 -57l-35 -46q-20 16 -46 42t-47.5 53.5t-36.5 54t-15 47.5v627h-144v-627z" />
<glyph unicode="w" horiz-adv-x="1167" d="M102 276q0 -94 56.5 -168.5t148.5 -97.5h144q76 18 133 80q55 -61 133 -80h143q92 23 148.5 97.5t56.5 168.5v687h-143v-687q0 -55 -39 -94t-94.5 -39t-94.5 39t-39 94v687h-143v-687q0 -55 -39 -94t-94 -39t-94 39t-39 94v687h-144v-687z" />
<glyph unicode="x" horiz-adv-x="727" d="M86 0h143v276q0 55 39 94.5t94.5 39.5t94.5 -39t39 -95v-276h143v276q0 121 -90 205q41 41 65.5 93.5t24.5 111.5v277h-143v-277q0 -55 -39 -94t-94.5 -39t-94.5 39t-39 94v277h-143v-277q0 -121 90 -205q-41 -41 -65.5 -93t-24.5 -112v-276z" />
<glyph unicode="y" horiz-adv-x="729" d="M82 276q0 -57 21.5 -107t59.5 -88t88 -59.5t107 -21.5h134v-131q0 -55 -40 -94t-94 -39h-227v-144h227q57 0 107.5 21.5t88.5 59.5t59.5 88.5t21.5 107.5v1094h-143v-820h-134q-55 0 -94 39t-39 94v687h-143v-687z" />
<glyph unicode="z" horiz-adv-x="710" d="M80 0h553v141l-410 2v99l410 307v414h-553v-144h412v-201l-412 -307v-311z" />
<glyph unicode="{" horiz-adv-x="489" d="M45 614h37q8 -35 12 -76.5t4 -93.5v-69q0 -45 -1 -94.5t-1 -92.5v-55q0 -57 21.5 -107.5t59.5 -87t88 -58t108 -21.5h71v141h-71q-55 0 -94 39t-39 94q0 39 1 116q1 38 0.5 78.5t-0.5 82.5q-1 84 -8.5 160.5t-23.5 115.5q20 45 25.5 100.5t5.5 104.5v389q0 55 39.5 94 t93.5 39h71v143h-71q-57 0 -107.5 -21.5t-88.5 -59t-59.5 -88t-21.5 -107.5v-389q0 -33 -2 -66.5t-12 -66.5h-37v-144z" />
<glyph unicode="|" horiz-adv-x="348" d="M102 0h144v1475h-144v-1475z" />
<glyph unicode="}" horiz-adv-x="489" d="M45 1417h72q55 0 94 -39t39 -94v-393q0 -49 6 -104.5t25 -100.5q-16 -41 -23.5 -116.5t-8.5 -158.5q-1 -41 -1 -81t1 -78q1 -76 1 -119q0 -55 -39 -94t-94 -39h-72v-141h72q57 0 107 21.5t88 58t59.5 87t21.5 107.5v57q0 43 -1 91.5t-1 93.5v69q0 47 3 92.5t14 77.5h36 v144h-36q-10 33 -12.5 66.5t-2.5 66.5v393q0 57 -21.5 107.5t-59.5 88.5t-88 59.5t-107 21.5h-72v-144z" />
<glyph unicode="~" horiz-adv-x="817" d="M102 1276l84 -43q45 113 103 113q27 0 47 -13l43 -26q29 -20 61.5 -37t79.5 -17q141 0 195 177l-80 43l-37 -58.5t-25.5 -33t-22.5 -15.5t-26 -4q-25 0 -45 11t-43 26q-29 18 -61.5 34.5t-75.5 16.5q-78 0 -125 -46t-72 -128z" />
<glyph horiz-adv-x="360" d="M102 0h62l-49 -272h57l86 292v162h-156v-182z" />
<glyph unicode="&#x201a;" horiz-adv-x="360" d="M102 0h62l-49 -272h57l86 292v162h-156v-182z" />
<glyph horiz-adv-x="706" d="M102 -59v-144h72q53 0 95 24.5t71 64.5t44 88.5t15 97.5v745h205v144h-205v237q0 55 40 94t93 39h72v144h-72q-57 0 -107 -21.5t-88 -59.5t-59.5 -88.5t-21.5 -107.5v-1126q0 -16 -5 -39t-14.5 -43.5t-25.5 -34.5t-37 -14h-72z" />
<glyph unicode="&#x192;" horiz-adv-x="706" d="M102 -59v-144h72q53 0 95 24.5t71 64.5t44 88.5t15 97.5v745h205v144h-205v237q0 55 40 94t93 39h72v144h-72q-57 0 -107 -21.5t-88 -59.5t-59.5 -88.5t-21.5 -107.5v-1126q0 -16 -5 -39t-14.5 -43.5t-25.5 -34.5t-37 -14h-72z" />
<glyph horiz-adv-x="604" d="M102 0h62l-51 -272h59l86 292v162h-156v-182zM346 0h62l-54 -272h60l88 292v162h-156v-182z" />
<glyph unicode="&#x201e;" horiz-adv-x="604" d="M102 0h62l-51 -272h59l86 292v162h-156v-182zM346 0h62l-54 -272h60l88 292v162h-156v-182z" />
<glyph unicode="&#x85;" horiz-adv-x="1167" d="M102 2h144v193h-144v-193zM512 2h143v193h-143v-193zM922 2h143v193h-143v-193z" />
<glyph unicode="&#x2026;" horiz-adv-x="1167" d="M102 2h144v193h-144v-193zM512 2h143v193h-143v-193zM922 2h143v193h-143v-193z" />
<glyph d="M102 1200h205v-983h144v983h204v143h-204v205h-144v-205h-205v-143z" />
<glyph unicode="&#x2020;" d="M102 1200h205v-983h144v983h204v143h-204v205h-144v-205h-205v-143z" />
<glyph d="M102 471h205v-266h144v266h204v143h-204v533h204v143h-204v205h-144v-205h-205v-143h205v-533h-205v-143z" />
<glyph unicode="&#x2021;" d="M102 471h205v-266h144v266h204v143h-204v533h204v143h-204v205h-144v-205h-205v-143h205v-533h-205v-143z" />
<glyph horiz-adv-x="608" d="M102 1303l99 -101l94 101l108 -105l103 100l-211 205z" />
<glyph unicode="&#x2c6;" horiz-adv-x="608" d="M102 1303l99 -101l94 101l108 -105l103 100l-211 205z" />
<glyph horiz-adv-x="1615" d="M102 102l144 -77l966 1384l-143 78zM125 1198q0 -57 21.5 -107.5t59.5 -88t88 -59t107.5 -21.5t107.5 21.5t88 59t59.5 88t21.5 107.5t-21.5 107.5t-59.5 88.5t-88 59.5t-107.5 21.5t-107.5 -21.5t-88 -59.5t-59.5 -88.5t-21.5 -107.5zM268 1198q0 55 40 94t93 39 q55 0 94.5 -39t39.5 -94t-39 -94t-94.5 -39t-94.5 39t-39 94zM551 276.5q0 -57.5 21.5 -107.5t59.5 -88t88 -59.5t107 -21.5q125 0 205 90q84 -90 205 -90q57 0 107.5 21.5t88 59.5t59 88t21.5 107.5t-21.5 107.5t-59 88t-88 59.5t-107.5 21.5q-125 0 -205 -90 q-86 90 -205 90q-57 0 -107 -21.5t-88 -59.5t-59.5 -88t-21.5 -107.5zM694 276.5q0 55.5 39 94.5t94.5 39t94.5 -39t39 -94.5t-39 -94.5t-94.5 -39t-94.5 39t-39 94.5zM1104 276.5q0 55.5 39 94.5t94 39t94 -39t39 -94.5t-39 -94.5t-94 -39t-94 39t-39 94.5z" />
<glyph unicode="&#x2030;" horiz-adv-x="1615" d="M102 102l144 -77l966 1384l-143 78zM125 1198q0 -57 21.5 -107.5t59.5 -88t88 -59t107.5 -21.5t107.5 21.5t88 59t59.5 88t21.5 107.5t-21.5 107.5t-59.5 88.5t-88 59.5t-107.5 21.5t-107.5 -21.5t-88 -59.5t-59.5 -88.5t-21.5 -107.5zM268 1198q0 55 40 94t93 39 q55 0 94.5 -39t39.5 -94t-39 -94t-94.5 -39t-94.5 39t-39 94zM551 276.5q0 -57.5 21.5 -107.5t59.5 -88t88 -59.5t107 -21.5q125 0 205 90q84 -90 205 -90q57 0 107.5 21.5t88 59.5t59 88t21.5 107.5t-21.5 107.5t-59 88t-88 59.5t-107.5 21.5q-125 0 -205 -90 q-86 90 -205 90q-57 0 -107 -21.5t-88 -59.5t-59.5 -88t-21.5 -107.5zM694 276.5q0 55.5 39 94.5t94.5 39t94.5 -39t39 -94.5t-39 -94.5t-94.5 -39t-94.5 39t-39 94.5zM1104 276.5q0 55.5 39 94.5t94 39t94 -39t39 -94.5t-39 -94.5t-94 -39t-94 39t-39 94.5z" />
<glyph horiz-adv-x="679" d="M53 1196q0 -57 21.5 -107.5t59.5 -88t88 -59t108 -21.5q55 0 94 -39t39 -95v-512q0 -55 -40 -94t-93 -39q-49 0 -81 29l-65 61l-100 -102q55 -55 108.5 -92t137.5 -37q57 0 107 21.5t88 58.5t59.5 87t21.5 107v512q0 57 -21.5 107.5t-59.5 88.5t-88 59.5t-107 21.5 q-55 0 -94 39t-39 94t38.5 94t94.5 39q49 0 80.5 -28.5t64.5 -61.5l100 102q-55 55 -108 93.5t-137 38.5q-57 0 -107.5 -21.5t-88.5 -59.5t-59.5 -88.5t-21.5 -107.5zM147 1763l172 -172l175 172l-103 101l-72 -72l-71 72z" />
<glyph unicode="&#x160;" horiz-adv-x="679" d="M53 1196q0 -57 21.5 -107.5t59.5 -88t88 -59t108 -21.5q55 0 94 -39t39 -95v-512q0 -55 -40 -94t-93 -39q-49 0 -81 29l-65 61l-100 -102q55 -55 108.5 -92t137.5 -37q57 0 107 21.5t88 58.5t59.5 87t21.5 107v512q0 57 -21.5 107.5t-59.5 88.5t-88 59.5t-107 21.5 q-55 0 -94 39t-39 94t38.5 94t94.5 39q49 0 80.5 -28.5t64.5 -61.5l100 102q-55 55 -108 93.5t-137 38.5q-57 0 -107.5 -21.5t-88.5 -59.5t-59.5 -88.5t-21.5 -107.5zM147 1763l172 -172l175 172l-103 101l-72 -72l-71 72z" />
<glyph horiz-adv-x="516" d="M102 485l197 -198l102 100l-96 98l109 117l-95 100z" />
<glyph unicode="&#x2039;" horiz-adv-x="516" d="M102 485l197 -198l102 100l-96 98l109 117l-95 100z" />
<glyph horiz-adv-x="1054" d="M92 276q0 -57 21.5 -107t59.5 -88t88 -59.5t108 -21.5q125 0 204 90q84 -90 205 -90h226v143h-226q-55 0 -94 39t-39 94v541h205v144h-205v237q0 55 40 94t93 39h226v144h-226q-125 0 -205 -91q-84 90 -204 91q-57 0 -107.5 -21.5t-88.5 -59.5t-59.5 -88.5t-21.5 -107.5 v-922zM236 276v922q0 55 39.5 94t93.5 39q55 0 94 -39t39 -94v-922q0 -55 -39 -94t-94.5 -39t-94 39t-38.5 94z" />
<glyph unicode="&#x152;" horiz-adv-x="1054" d="M92 276q0 -57 21.5 -107t59.5 -88t88 -59.5t108 -21.5q125 0 204 90q84 -90 205 -90h226v143h-226q-55 0 -94 39t-39 94v541h205v144h-205v237q0 55 40 94t93 39h226v144h-226q-125 0 -205 -91q-84 90 -204 91q-57 0 -107.5 -21.5t-88.5 -59.5t-59.5 -88.5t-21.5 -107.5 v-922zM236 276v922q0 55 39.5 94t93.5 39q55 0 94 -39t39 -94v-922q0 -55 -39 -94t-94.5 -39t-94 39t-38.5 94z" />
<glyph horiz-adv-x="360" d="M102 1077h156v178h-61l51 277h-60l-86 -293v-162z" />
<glyph unicode="&#x2018;" horiz-adv-x="360" d="M102 1077h156v178h-61l51 277h-60l-86 -293v-162z" />
<glyph horiz-adv-x="360" d="M102 1354h62l-49 -277h57l86 295v160h-156v-178z" />
<glyph unicode="&#x2019;" horiz-adv-x="360" d="M102 1354h62l-49 -277h57l86 295v160h-156v-178z" />
<glyph horiz-adv-x="604" d="M102 1077h156v178h-61l53 277h-60l-88 -293v-162zM346 1077h156v178h-62l54 277h-60l-88 -293v-162z" />
<glyph unicode="&#x201c;" horiz-adv-x="604" d="M102 1077h156v178h-61l53 277h-60l-88 -293v-162zM346 1077h156v178h-62l54 277h-60l-88 -293v-162z" />
<glyph horiz-adv-x="604" d="M102 1354h62l-51 -277h59l86 295v160h-156v-178zM346 1354h62l-54 -277h60l88 295v160h-156v-178z" />
<glyph unicode="&#x201d;" horiz-adv-x="604" d="M102 1354h62l-51 -277h59l86 295v160h-156v-178zM346 1354h62l-54 -277h60l88 295v160h-156v-178z" />
<glyph horiz-adv-x="823" d="M102 653l203 -104l103 -178l114 178l199 113l-199 100l-112 186l-113 -190z" />
<glyph unicode="&#x2022;" horiz-adv-x="823" d="M102 653l203 -104l103 -178l114 178l199 113l-199 100l-112 186l-113 -190z" />
<glyph horiz-adv-x="962" d="M102 410h758v143h-758v-143z" />
<glyph unicode="&#x2013;" horiz-adv-x="962" d="M102 410h758v143h-758v-143z" />
<glyph horiz-adv-x="1167" d="M102 410h963v143h-963v-143z" />
<glyph unicode="&#x2014;" horiz-adv-x="1167" d="M102 410h963v143h-963v-143z" />
<glyph horiz-adv-x="817" d="M102 1264l84 -43q45 113 103 112q27 0 47 -12l43 -27q29 -20 61.5 -36.5t79.5 -16.5q141 0 195 176l-80 43l-37 -58.5t-25.5 -32.5t-22.5 -15t-26 -4q-25 0 -45 11t-43 25q-29 18 -61.5 35t-75.5 17q-78 0 -125 -46t-72 -128z" />
<glyph unicode="&#x2dc;" horiz-adv-x="817" d="M102 1264l84 -43q45 113 103 112q27 0 47 -12l43 -27q29 -20 61.5 -36.5t79.5 -16.5q141 0 195 176l-80 43l-37 -58.5t-25.5 -32.5t-22.5 -15t-26 -4q-25 0 -45 11t-43 25q-29 18 -61.5 35t-75.5 17q-78 0 -125 -46t-72 -128z" />
<glyph horiz-adv-x="1503" d="M39 1331h184v-618h129v618h185v144h-498v-144zM575 715h130v485q0 55 35.5 94t82.5 39q51 0 86 -39t35 -94v-485h129v485q0 55 36 94t83 39q51 0 86 -39t35 -94v-485h129v485q0 94 -50.5 169t-131.5 97h-130q-74 -18 -122 -80q-51 59 -117 80h-129q-84 -23 -135.5 -97.5 t-51.5 -168.5v-485z" />
<glyph unicode="&#x2122;" horiz-adv-x="1503" d="M39 1331h184v-618h129v618h185v144h-498v-144zM575 715h130v485q0 55 35.5 94t82.5 39q51 0 86 -39t35 -94v-485h129v485q0 55 36 94t83 39q51 0 86 -39t35 -94v-485h129v485q0 94 -50.5 169t-131.5 97h-130q-74 -18 -122 -80q-51 59 -117 80h-129q-84 -23 -135.5 -97.5 t-51.5 -168.5v-485z" />
<glyph horiz-adv-x="663" d="M57 686q0 -57 21.5 -107.5t59.5 -88t88 -59t108 -21.5q55 0 94 -39t39 -94.5t-39 -94.5t-94 -39q-49 0 -81 29l-65 61l-100 -102q55 -55 108.5 -93t137.5 -38q57 0 107.5 21.5t88 59.5t59 88t21.5 107.5t-21.5 107.5t-59 88t-88 59.5t-107.5 21.5q-55 0 -94 39t-39 94 t39 94t94 39q51 0 82 -28l63 -62l101 102q-55 55 -108.5 93.5t-137.5 38.5q-57 0 -107.5 -21.5t-88.5 -59.5t-59.5 -88.5t-21.5 -107.5zM162 1423l172 -172l174 172l-102 101l-72 -72l-72 72z" />
<glyph unicode="&#x161;" horiz-adv-x="663" d="M57 686q0 -57 21.5 -107.5t59.5 -88t88 -59t108 -21.5q55 0 94 -39t39 -94.5t-39 -94.5t-94 -39q-49 0 -81 29l-65 61l-100 -102q55 -55 108.5 -93t137.5 -38q57 0 107.5 21.5t88 59.5t59 88t21.5 107.5t-21.5 107.5t-59 88t-88 59.5t-107.5 21.5q-55 0 -94 39t-39 94 t39 94t94 39q51 0 82 -28l63 -62l101 102q-55 55 -108.5 93.5t-137.5 38.5q-57 0 -107.5 -21.5t-88.5 -59.5t-59.5 -88.5t-21.5 -107.5zM162 1423l172 -172l174 172l-102 101l-72 -72l-72 72z" />
<glyph horiz-adv-x="516" d="M102 602l109 -117l-96 -98l102 -100l197 198l-217 217z" />
<glyph unicode="&#x203a;" horiz-adv-x="516" d="M102 602l109 -117l-96 -98l102 -100l197 198l-217 217z" />
<glyph horiz-adv-x="1124" d="M88 276q0 -57 21.5 -107t59.5 -88t88 -59.5t108 -21.5q125 0 204 90q84 -90 205 -90h236v143h-236q-55 0 -94 39t-39 94v134h410v276q0 57 -21.5 107.5t-59.5 88.5t-88.5 59.5t-107.5 21.5q-125 0 -205 -91q-84 90 -204 91q-57 0 -107.5 -21.5t-88.5 -59.5t-59.5 -88.5 t-21.5 -107.5v-410zM231 276v410q0 55 39 94t94.5 39t94.5 -39t39 -94v-410q0 -55 -39 -94t-94.5 -39t-94.5 39t-39 94zM641 553v133q0 55 39 94t94 39t94 -39t39 -94v-133h-266z" />
<glyph unicode="&#x153;" horiz-adv-x="1124" d="M88 276q0 -57 21.5 -107t59.5 -88t88 -59.5t108 -21.5q125 0 204 90q84 -90 205 -90h236v143h-236q-55 0 -94 39t-39 94v134h410v276q0 57 -21.5 107.5t-59.5 88.5t-88.5 59.5t-107.5 21.5q-125 0 -205 -91q-84 90 -204 91q-57 0 -107.5 -21.5t-88.5 -59.5t-59.5 -88.5 t-21.5 -107.5v-410zM231 276v410q0 55 39 94t94.5 39t94.5 -39t39 -94v-410q0 -55 -39 -94t-94.5 -39t-94.5 39t-39 94zM641 553v133q0 55 39 94t94 39t94 -39t39 -94v-133h-266z" />
<glyph horiz-adv-x="690" d="M68 1094q0 -94 56 -169t148 -98v-827h144v827q92 23 148.5 97.5t56.5 169.5v381h-144v-381q0 -55 -39 -94t-94 -39t-94 38.5t-39 94.5v381h-143v-381zM68 1642h143v195h-143v-195zM477 1642h144v195h-144v-195z" />
<glyph unicode="&#x178;" horiz-adv-x="690" d="M68 1094q0 -94 56 -169t148 -98v-827h144v827q92 23 148.5 97.5t56.5 169.5v381h-144v-381q0 -55 -39 -94t-94 -39t-94 38.5t-39 94.5v381h-143v-381zM68 1642h143v195h-143v-195zM477 1642h144v195h-144v-195z" />
<glyph unicode="&#xa1;" horiz-adv-x="348" d="M102 -528h144v1065h-144v-1065zM102 766h144v195h-144v-195z" />
<glyph unicode="&#xa2;" horiz-adv-x="727" d="M102 276q0 -94 56.5 -168.5t148.5 -97.5v-110h144v110q61 16 97 47t77 74l-101 102q-33 -33 -64.5 -61.5t-80.5 -28.5q-55 0 -94 39t-39 94v410q0 55 39 94t94 39q51 0 82 -28l63 -62l101 102q-39 39 -80 73t-94 50v111h-144v-113q-92 -23 -148.5 -97.5t-56.5 -168.5 v-410z" />
<glyph unicode="&#xa3;" horiz-adv-x="696" d="M102 0h277q57 0 107.5 21.5t88 59.5t59 88t21.5 107v72h-143v-72q0 -55 -39 -94t-94 -39h-133v676h205v144h-205v235q0 55 40 94t93 39q51 0 82 -28l63 -62l101 102q-55 55 -107.5 93.5t-138.5 38.5q-57 0 -107.5 -21.5t-88.5 -59.5t-59.5 -88.5t-21.5 -107.5v-1198z" />
<glyph unicode="&#xa5;" horiz-adv-x="681" d="M59 205h205v-205h144v205h204v143h-204v266h204v144h-204v71q92 23 148 97.5t56 169.5v379h-143v-379q0 -55 -39 -94t-94 -39t-94 38.5t-39 94.5v379h-144v-379q0 -94 56.5 -169t148.5 -98v-71h-205v-144h205v-266h-205v-143z" />
<glyph unicode="&#xa6;" horiz-adv-x="348" d="M102 0h144v485h-144v-485zM102 997h144v478h-144v-478z" />
<glyph unicode="&#xa7;" horiz-adv-x="694" d="M57 686q0 -53 15.5 -92t40.5 -72q29 -61 94 -96t151 -35h19q10 0 20 2q31 -16 50.5 -47t19.5 -70q0 -55 -39 -94t-94 -39q-49 0 -81 29l-65 61l-100 -102q55 -55 108.5 -93t137.5 -38q57 0 107.5 21.5t88 59.5t59 88t21.5 107q0 53 -18.5 99.5t-50.5 83.5q43 39 68.5 92 t25.5 117q0 78 -38 141t-101 98q-33 27 -72 41.5t-90 14.5q-10 0 -19.5 -1t-19.5 -4q-33 16 -51.5 48t-18.5 71q0 55 39 94t94 39q51 0 82 -28l64 -62l100 103q-55 55 -108.5 93t-137.5 38q-57 0 -107 -21.5t-88 -59.5t-59.5 -88t-21.5 -108q0 -53 18.5 -100t51.5 -84 q-43 -39 -69 -92.5t-26 -114.5zM201 686q0 41 23.5 75t60.5 50q18 -4 35.5 -7t37.5 -3q37 0 66 -19q14 -10 25.5 -23.5t23.5 -25.5q18 -31 19 -65q0 -43 -24 -77t-62 -48q-37 10 -72 10q-37 0 -64 14q-14 12 -27 26l-26 25q-16 27 -16 68z" />
<glyph unicode="&#xa8;" horiz-adv-x="610" d="M102 1280h144v195h-144v-195zM365 1280h143v195h-143v-195z" />
<glyph unicode="&#xa9;" horiz-adv-x="1110" d="M102 715q0 -92 28 -192.5t84 -182.5t141 -135t200 -53q55 0 133 27.5t148.5 92t121 172t50.5 267.5q0 14 -5.5 62t-21.5 110.5t-46 132t-80 127t-124 95.5t-176 38q-70 0 -148.5 -34t-146 -102.5t-113 -175t-45.5 -249.5zM178 715q0 113 35 203t89 153.5t120.5 97 t132.5 33.5q98 0 169 -50t117 -124t68.5 -160t22.5 -155q0 -90 -26.5 -177t-76 -157t-119 -113t-155.5 -43q-59 0 -124.5 33t-122 95.5t-93.5 154.5t-37 209zM360 672q0 -43 16.5 -81t44.5 -65.5t66.5 -44t81.5 -16.5q66 0 105 27.5t80 70.5l-76 76l-48 -45q-24 -23 -61 -23 q-41 0 -70.5 30t-29.5 71v78q0 41 29.5 69.5t70.5 28.5q37 0 61 -22l48 -46l76 78q-41 41 -81 69.5t-104 28.5q-43 0 -81.5 -16t-66.5 -44t-44.5 -65.5t-16.5 -80.5v-78z" />
<glyph unicode="&#xaa;" horiz-adv-x="718" d="M70 276.5q0 -57.5 21.5 -107.5t59 -88t88 -59.5t107.5 -21.5q80 0 146 41v-41h131v686q0 57 -21.5 107.5t-59.5 88.5t-88.5 59.5t-107.5 21.5q-84 0 -137 -38t-109 -94l101 -102q33 33 64.5 61.5t80.5 28.5q55 0 94 -39t39 -94v-133h-133q-57 0 -107.5 -21.5t-88 -59.5 t-59 -88t-21.5 -107.5zM213 276.5q0 55.5 39 94.5t94 39h141v-134q0 -55 -43 -94t-98 -39t-94 39t-39 94.5z" />
<glyph unicode="&#xab;" horiz-adv-x="827" d="M102 485l197 -198l102 100l-96 98l109 117l-95 100zM414 481l196 -198l103 100l-97 98l109 117l-94 100z" />
<glyph unicode="&#xac;" horiz-adv-x="962" d="M102 575h615v-204h143v348h-758v-144z" />
<glyph unicode="&#xad;" horiz-adv-x="475" d="M55 610h363v144h-363v-144z" />
<glyph unicode="&#xae;" horiz-adv-x="1110" d="M102 715q0 -92 28 -192.5t84 -182.5t141 -135t200 -53q55 0 133 27.5t148.5 92t121 172t50.5 267.5q0 14 -5.5 62t-21.5 110.5t-46 132t-80 127t-124 95.5t-176 38q-70 0 -148.5 -34t-146 -102.5t-113 -175t-45.5 -249.5zM178 715q0 113 35 203t89 153.5t120.5 97 t132.5 33.5q98 0 169 -50t117 -124t68.5 -160t22.5 -155q0 -90 -26.5 -177t-76 -157t-119 -113t-155.5 -43q-59 0 -124.5 33t-122 95.5t-93.5 154.5t-37 209zM385 760h31v-469h82v469h75q31 0 52.5 -22.5t21.5 -55.5v-391h82v391q0 70 -49 119q49 49 49 119v57q0 66 -45 113 t-111 47h-157v-295h-31v-82zM498 842v211h75q31 0 52.5 -22.5t21.5 -53.5v-57q0 -33 -21.5 -55.5t-52.5 -22.5h-75z" />
<glyph unicode="&#xb0;" d="M102 1198q0 -57 21.5 -107.5t59.5 -88t88.5 -59t107.5 -21.5t107.5 21.5t88 59t59 88t21.5 107.5t-21.5 107.5t-59 88.5t-88 59.5t-107.5 21.5t-107.5 -21.5t-88.5 -59.5t-59.5 -88.5t-21.5 -107.5zM246 1198q0 55 40 94t93 39q55 0 94 -39t39 -94t-39 -94t-94 -39 t-94 39t-39 94z" />
<glyph unicode="&#xb1;" d="M102 410h553v143h-553v-143zM102 819h205v-205h144v205h204v144h-204v204h-144v-204h-205v-144z" />
<glyph unicode="&#xb2;" horiz-adv-x="710" d="M84 0h553v143h-410v392q0 55 39 94t94 39q57 0 107.5 21.5t88.5 59t59.5 88t21.5 107.5v254q0 57 -21.5 107.5t-59.5 88.5t-88 59.5t-107.5 21.5t-107.5 -21.5t-88 -59.5t-59.5 -88.5t-21.5 -107.5v-72h143v72q0 55 40 94t93 39q55 0 94.5 -39t39.5 -94v-254 q0 -55 -39 -94t-95 -39q-57 0 -107 -21.5t-88 -59.5t-59.5 -88t-21.5 -107v-535z" />
<glyph unicode="&#xb3;" horiz-adv-x="702" d="M49 1126h144v72q0 55 39.5 94t93.5 39q55 0 94 -39t39 -94v-244q0 -55 -39 -94t-94 -39h-72l2 -174h72q55 0 94 -39t39 -94v-244q0 -55 -39 -94t-94 -39q-53 0 -93 39t-40 94v72h-144v-72q0 -57 21.5 -107t59.5 -87t88 -58.5t107.5 -21.5t107.5 21.5t88 58.5t59.5 87 t21.5 107v244q0 119 -90 205q4 6 8 15t-6 20q86 86 86 200v244q0 57 -21.5 107.5t-59.5 88.5t-88 59.5t-107.5 21.5t-107.5 -21.5t-88 -59.5t-59.5 -88.5t-21.5 -107.5v-72z" />
<glyph unicode="&#xb4;" horiz-adv-x="497" d="M102 1309l103 -101l190 273l-102 100z" />
<glyph unicode="&#xb5;" horiz-adv-x="862" d="M102 -360h144v383q27 -14 63 -25q109 0 162 14.5t75.5 29.5t29 25.5t18.5 2.5q37 -25 62.5 -39.5t47 -21.5t41 -9t48.5 -2h53v143h-53q-55 0 -94.5 39t-39.5 94l-2 684h-143v-694q0 -55 -39 -94t-94 -39t-94 39t-39 94v694h-146v-1318z" />
<glyph unicode="&#x3bc;" horiz-adv-x="862" d="M102 -360h144v383q27 -14 63 -25q109 0 162 14.5t75.5 29.5t29 25.5t18.5 2.5q37 -25 62.5 -39.5t47 -21.5t41 -9t48.5 -2h53v143h-53q-55 0 -94.5 39t-39.5 94l-2 684h-143v-694q0 -55 -39 -94t-94 -39t-94 39t-39 94v694h-146v-1318z" />
<glyph unicode="&#xb6;" horiz-adv-x="710" d="M63 588q0 -90 50.5 -161t128.5 -99v-428h188v1243h88v-1237h96l2 1368h-276q-57 0 -107.5 -21.5t-88.5 -59.5t-59.5 -88t-21.5 -108v-409z" />
<glyph unicode="&#xb7;" horiz-adv-x="360" d="M102 563h156v195h-156v-195z" />
<glyph unicode="&#x2219;" horiz-adv-x="360" d="M102 563h156v195h-156v-195z" />
<glyph unicode="&#xb8;" horiz-adv-x="450" d="M102 -162v-143h72q72 0 123 51t51 123v274h-143v-274q0 -16 -12.5 -23.5t-29 -9.5t-34 0t-27.5 2z" />
<glyph unicode="&#xb9;" horiz-adv-x="452" d="M37 1331h166v-1331h151l-2 1475h-315v-144z" />
<glyph unicode="&#xba;" horiz-adv-x="714" d="M84 276q0 -57 21.5 -107t59.5 -88t88 -59.5t107.5 -21.5t107.5 21.5t88 59.5t59.5 88t21.5 107v410q0 57 -21.5 107.5t-59.5 88.5t-88 59.5t-107.5 21.5t-107.5 -21.5t-88 -59.5t-59.5 -88.5t-21.5 -107.5v-410zM227 276v410q0 55 39 94t94.5 39t94.5 -39t39 -94v-410 q0 -55 -39 -94t-94.5 -39t-94.5 39t-39 94z" />
<glyph unicode="&#xbb;" horiz-adv-x="827" d="M102 598l109 -117l-96 -98l102 -100l197 198l-217 217zM414 602l108 -117l-96 -98l102 -100l197 198l-217 217z" />
<glyph unicode="&#xbf;" horiz-adv-x="569" d="M102 -248q0 -57 21.5 -107.5t59.5 -88t88.5 -59t107.5 -21.5t107.5 21.5t88 59t59 88t21.5 107.5v72h-143v-72q0 -55 -39 -94t-94 -39t-94 39t-39 94v512q0 55 39 94t94 39h72v254h-140v-119q-92 -23 -150.5 -96.5t-58.5 -171.5v-512zM309 770h144v195h-144v-195z" />
<glyph unicode="&#xc0;" horiz-adv-x="792" d="M78 819h51v-819h143v819h267v-819h143v1198q0 57 -21.5 107.5t-59.5 88.5t-88 59.5t-107.5 21.5t-107.5 -21.5t-88 -59.5t-59.5 -88.5t-21.5 -107.5v-235h-51v-144zM272 963v235q0 55 40 94t94 39q55 0 94 -39t39 -94v-235h-267zM285 1800l151 -151l101 100l-152 152z " />
<glyph unicode="&#xc1;" horiz-adv-x="792" d="M80 823h51v-823h143v823h267v-823h143v1198q0 57 -21.5 107.5t-59.5 88.5t-88 59.5t-107.5 21.5t-107.5 -21.5t-88 -59.5t-59.5 -88.5t-21.5 -107.5v-231h-51v-144zM274 967v231q0 55 40 94t94 39q55 0 94 -39t39 -94v-231h-267zM326 1741l102 -101l154 152l-103 100z " />
<glyph unicode="&#xc2;" horiz-adv-x="792" d="M80 823h51v-823h143v823h267v-823h143v1198q0 57 -21.5 108.5t-59.5 90.5t-88 61.5t-107.5 22.5t-107.5 -22.5t-88 -61.5t-59.5 -90.5t-21.5 -108.5v-231h-51v-144zM233 1714l103 -100l70 72l73 -72l101 100l-172 172zM274 967v231q0 55 40 94t94 39q55 0 94 -39t39 -94 v-231h-267z" />
<glyph unicode="&#xc3;" horiz-adv-x="792" d="M74 823h51v-823h143v823h267v-823h143v1198q0 57 -21.5 107.5t-59.5 88.5t-88 59.5t-107.5 21.5t-107.5 -21.5t-88 -59.5t-59.5 -88.5t-21.5 -107.5v-231h-51v-144zM86 1667l84 -43q45 113 102 113q27 0 47 -13l43 -26q29 -20 62 -36.5t80 -16.5q141 0 194 176l-80 43 l-37 -58.5t-25 -33t-22.5 -15.5t-25.5 -4q-25 0 -45.5 11.5t-42.5 25.5q-29 18 -61.5 34.5t-75.5 16.5q-78 0 -125 -46t-72 -128zM268 967v231q0 55 40 94t93 39q55 0 94.5 -39t39.5 -94v-231h-267z" />
<glyph unicode="&#xc4;" horiz-adv-x="792" d="M78 821h51v-821h143v821h267v-821h143v1198q0 57 -21.5 107.5t-59.5 88.5t-88 59.5t-107.5 21.5t-107.5 -21.5t-88 -59.5t-59.5 -88.5t-21.5 -107.5v-233h-51v-144zM199 1642h143v195h-143v-195zM272 965v233q0 55 40 94t94 39q55 0 94 -39t39 -94v-233h-267zM479 1642 h144v195h-144v-195z" />
<glyph unicode="&#xc5;" horiz-adv-x="792" d="M78 821h51v-821h143v821h267v-821h143v1198q0 57 -21.5 107.5t-59.5 88.5t-88 59.5t-107.5 21.5t-107.5 -21.5t-88 -59.5t-59.5 -88.5t-21.5 -107.5v-233h-51v-144zM287 1679q41 -41 104 -41q61 0 104.5 43t43.5 105q-4 63 -45 104t-103 41q-63 0 -105 -43 q-40 -41 -40 -99q0 -69 41 -110zM272 965v233q0 55 40 94t94 39q55 0 94 -39t39 -94v-233h-267zM324 1786q6 10 13 20.5t5 26.5q23 0 49 20q20 -20 49 -20q0 -29 19 -49q-18 -29 -19 -47q-23 0 -49 -21q-20 20 -49 21q0 26 -18 49z" />
<glyph unicode="&#xc6;" horiz-adv-x="1105" d="M90 815h51v-815h144v815h266v-815h502v143h-359v672h205v143h-205v240q0 55 40 94t93 39h226v144h-226q-125 0 -204 -91q-84 90 -205 91q-57 0 -107.5 -21.5t-88.5 -59.5t-59.5 -88.5t-21.5 -107.5v-240h-51v-143zM285 958v240q0 55 40 94t93 39q55 0 94 -39t39 -94v-240 h-266z" />
<glyph unicode="&#xc7;" horiz-adv-x="657" d="M102 276q0 -94 56.5 -168.5t148.5 -97.5v-141q0 -16 -12 -23.5t-28.5 -8.5t-34 0t-27.5 1v-143h71q72 0 123.5 51t51.5 123v141q61 16 97 47t77 74l-101 102q-33 -33 -64.5 -61.5t-80.5 -28.5q-55 0 -94 39t-39 94v922q0 55 40 94t93 39q49 0 81 -28.5t64 -61.5l101 102 q-55 55 -108.5 93.5t-137.5 38.5q-57 0 -107.5 -21.5t-88.5 -59.5t-59.5 -88.5t-21.5 -107.5v-922z" />
<glyph unicode="&#xc8;" horiz-adv-x="667" d="M74 1331h51v-1331h502v143h-359v680h205v144h-205v364h359v144h-553v-144zM170 1792l152 -152l100 101l-152 151z" />
<glyph unicode="&#xc9;" horiz-adv-x="665" d="M74 1331h51v-1331h502v143h-359v680h205v144h-205v364h359v144h-553v-144zM229 1739l103 -101l153 152l-102 100z" />
<glyph unicode="&#xca;" horiz-adv-x="669" d="M78 1331h51v-1331h502v143h-359v680h205v144h-205v364h359v144h-553v-144zM135 1733l103 -101l71 72l72 -72l100 101l-172 172z" />
<glyph unicode="&#xcb;" horiz-adv-x="675" d="M70 1642h143v195h-143v-195zM76 1475l2 -144h51l-2 -1331h502v143h-359v680h205v144h-205l2 364h359l-2 144h-553zM479 1642h144v195h-144v-195z" />
<glyph unicode="&#xcc;" horiz-adv-x="360" d="M51 1782l152 -152l100 101l-151 151zM63 0h246v143h-51v1188h51v144h-246v-144h52v-1188h-52v-143z" />
<glyph unicode="&#xcd;" horiz-adv-x="360" d="M37 0h246v143h-52l2 1188h52v144h-246v-144h51l-2 -1188h-51v-143zM70 1729l100 -101l154 152l-101 100z" />
<glyph unicode="&#xce;" horiz-adv-x="360" d="M6 1743l103 -101l71 72l72 -72l100 101l-172 172zM66 0h245v143h-51l2 1188h51v144h-245v-144h51l-2 -1188h-51v-143z" />
<glyph unicode="&#xcf;" horiz-adv-x="360" d="M-33 1642h144v195h-144v-195zM57 0h246v143h-51v1188h51v144h-246v-144h52v-1188h-52v-143zM250 1642h143v195h-143v-195z" />
<glyph unicode="&#xd0;" horiz-adv-x="798" d="M0 821h170v-821h276q57 0 107.5 21.5t88.5 59.5t59.5 88t21.5 107v922q0 57 -21.5 107.5t-59.5 88.5t-88 59.5t-108 21.5h-327v-144h51v-366h-170v-144zM313 143v678h185v144h-185v366h133q55 0 94.5 -39t39.5 -94v-922q0 -55 -39 -94t-95 -39h-133z" />
<glyph unicode="&#xd1;" horiz-adv-x="825" d="M102 0h146v1198q0 55 40 94t93 39q55 0 94 -39t39 -94v-1198h143v1198q0 94 -55 169t-147 97h-144q-92 -25 -149.5 -98.5t-57.5 -167.5v-1055h-2v-143zM111 1659l84 -43q45 113 102 113q27 0 47 -13l43 -26q29 -20 61.5 -37t79.5 -17q141 0 195 176l-80 43l-37 -58 t-25.5 -32.5t-22.5 -15.5t-26 -4q-25 0 -45 11t-43 26q-29 18 -61.5 34.5t-75.5 16.5q-78 0 -124.5 -46t-71.5 -128z" />
<glyph unicode="&#xd2;" horiz-adv-x="729" d="M90 276q0 -57 21.5 -107t59.5 -88t88 -59.5t107.5 -21.5t107.5 21.5t88 59.5t59.5 88t21.5 107v922q0 57 -21.5 107.5t-59.5 88.5t-88 59.5t-107.5 21.5t-107.5 -21.5t-88 -59.5t-59.5 -88.5t-21.5 -107.5v-922zM209 1792l151 -152l101 101l-152 151zM233 276v922 q0 55 40 94t94 39q55 0 94 -39t39 -94v-922q0 -55 -39 -94t-94.5 -39t-94.5 39t-39 94z" />
<glyph unicode="&#xd3;" horiz-adv-x="733" d="M96 276q0 -57 21.5 -107t59.5 -88t88 -59.5t107.5 -21.5t107.5 21.5t88 59.5t59.5 88t21.5 107v922q0 57 -21.5 107.5t-59.5 88.5t-88 59.5t-107.5 21.5t-107.5 -21.5t-88 -59.5t-59.5 -88.5t-21.5 -107.5v-922zM240 276v922q0 55 39.5 94t93.5 39q55 0 94 -39t39 -94 v-922q0 -55 -39 -94t-94.5 -39t-94 39t-38.5 94zM281 1735l102 -101l154 152l-103 100z" />
<glyph unicode="&#xd4;" horiz-adv-x="729" d="M86 276q0 -57 21.5 -107t59.5 -88t88 -59.5t107.5 -21.5t107.5 21.5t88 59.5t59.5 88t21.5 107v922q0 57 -21.5 107.5t-59.5 88.5t-88 59.5t-107.5 21.5t-107.5 -21.5t-88 -59.5t-59.5 -88.5t-21.5 -107.5v-922zM182 1743l103 -101l71 72l72 -72l100 101l-172 172z M229 276v922q0 55 40 94t93 39q55 0 94.5 -39t39.5 -94v-922q0 -55 -39 -94t-94.5 -39t-94.5 39t-39 94z" />
<glyph unicode="&#xd5;" horiz-adv-x="739" d="M61 1655l84 -43q45 113 103 112q27 0 47 -12l43 -26q29 -20 61.5 -37t79.5 -17q141 0 195 176l-80 43l-37 -58t-25.5 -32.5t-22.5 -15.5t-26 -4q-25 0 -45 11t-43 26q-29 18 -61.5 34.5t-75.5 16.5q-78 0 -125 -46t-72 -128zM94 276q0 -57 21.5 -107t59.5 -88t88 -59.5 t107.5 -21.5t107.5 21.5t88 59.5t59.5 88t21.5 107v922q0 57 -21.5 107.5t-58.5 88.5t-87 59.5t-107 21.5q-59 0 -109.5 -21.5t-87.5 -59.5t-58.5 -88.5t-21.5 -107.5zM238 276v922q0 55 38.5 94t94.5 39q53 0 93 -39t40 -94v-922q0 -55 -39 -94t-94.5 -39t-94 39t-38.5 94z " />
<glyph unicode="&#xd6;" horiz-adv-x="737" d="M90 276q0 -57 21.5 -107t59.5 -88t88 -59.5t107.5 -21.5t107.5 21.5t88 59.5t59.5 88t21.5 107v922q0 57 -21.5 107.5t-59.5 88.5t-88 59.5t-107.5 21.5t-107.5 -21.5t-88 -59.5t-59.5 -88.5t-21.5 -107.5v-922zM102 1638h144v195h-144v-195zM233 276v922q0 55 40 94 t94 39q55 0 94 -39t39 -94v-922q0 -55 -39 -94t-94.5 -39t-94.5 39t-39 94zM479 1638h144v195h-144v-195z" />
<glyph unicode="&#xd7;" horiz-adv-x="636" d="M78 535l100 -101l146 146l145 -146l100 101l-145 145l145 145l-100 101l-145 -146l-146 146l-100 -101l145 -145z" />
<glyph unicode="&#xd8;" d="M102 276q0 -57 21.5 -107t59.5 -88t88.5 -59.5t107.5 -21.5t107.5 21.5t88 59.5t59 88t21.5 107v922q0 29 -7 56.5t-23 66.5q-35 68 -99.5 111t-146.5 43q-57 0 -107.5 -21.5t-88.5 -59.5t-59.5 -88.5t-21.5 -107.5v-922zM246 573v625q0 55 40 94t93 39q57 0 98 -43z M272 197l240 733v-654q0 -55 -39 -94t-94 -39q-66 1 -107 54z" />
<glyph unicode="&#xd9;" d="M102 276q0 -57 21.5 -107t59.5 -88t88.5 -59.5t107.5 -21.5h276v1475h-143v-1332h-133q-55 0 -94 39t-39 94v1199h-144v-1199zM250 1782l151 -152l101 101l-152 151z" />
<glyph unicode="&#xda;" d="M102 276q0 -57 21.5 -107t59.5 -88t88.5 -59.5t107.5 -21.5h276v1475h-143v-1332h-133q-55 0 -94 39t-39 94v1199h-144v-1199zM309 1737l103 -101l153 152l-102 100z" />
<glyph unicode="&#xdb;" d="M102 276q0 -57 21.5 -107t59.5 -88t88.5 -59.5t107.5 -21.5h276v1475h-143v-1332h-133q-55 0 -94 39t-39 94v1199h-144v-1199zM205 1726l102 -100l72 72l72 -72l100 100l-172 172z" />
<glyph unicode="&#xdc;" d="M102 276q0 -57 21.5 -107t59.5 -88t88.5 -59.5t107.5 -21.5h276v1475h-143v-1332h-133q-55 0 -94 39t-39 94v1199h-144v-1199zM102 1645h144v194h-144v-194zM512 1645h143v194h-143v-194z" />
<glyph unicode="&#xdd;" horiz-adv-x="704" d="M72 1096q0 -94 56 -169t148 -98v-827h144v827q92 23 148.5 97.5t56.5 169.5v381h-144v-381q0 -55 -39 -94t-94 -39t-94 38.5t-39 94.5v381h-143v-381zM248 1731l102 -101l154 152l-103 100z" />
<glyph unicode="&#xde;" horiz-adv-x="808" d="M102 0h195v205h133q57 0 107.5 21.5t88.5 59.5t59.5 88t21.5 107v512q0 57 -21.5 107.5t-59.5 88.5t-88.5 59.5t-107.5 21.5h-133v205h-195v-144h52v-1188h-52v-143zM297 348v778h133q55 0 94 -38.5t39 -94.5v-512q0 -55 -39 -94t-94 -39h-133z" />
<glyph unicode="&#xdf;" horiz-adv-x="876" d="M102 -197h146v1387q0 76 26.5 129t83.5 55q37 0 59.5 -12t35 -30.5t15.5 -40t3 -38.5q0 -25 -25 -75l-55 -113q-31 -61 -55.5 -124.5t-24.5 -111.5q0 -88 28 -137t75 -100l137 -154q41 -45 59.5 -101t18.5 -122q0 -72 -22.5 -93.5t-69.5 -21.5q-43 0 -60.5 22.5 t-17.5 84.5v98h-148v-96q0 -113 62.5 -168t161.5 -55q111 0 175 61.5t64 202.5q0 80 -27.5 147.5t-80.5 126.5l-134 146q-41 45 -65.5 76.5t-24.5 87.5q0 47 26 97t57.5 102t57 108.5t25.5 115.5q0 104 -73.5 168t-184.5 64q-49 0 -94 -17.5t-79 -54.5t-54.5 -96t-20.5 -145 v-1373z" />
<glyph unicode="&#xe0;" horiz-adv-x="718" d="M68 278.5q0 -57.5 21.5 -107.5t59 -88t88 -59.5t107.5 -21.5q80 0 145 41v-41h129l3 686q0 57 -21.5 107.5t-59.5 88.5t-88.5 59.5t-107.5 21.5q-84 0 -137 -38t-109 -93l101 -103q33 33 64.5 61.5t80.5 28.5q55 0 94 -39t39 -94v-133h-133q-57 0 -107.5 -21.5t-88 -59.5 t-59 -88t-21.5 -107.5zM211 278.5q0 55.5 39 94.5t94 39h141v-133q0 -55 -43 -94.5t-98 -39.5t-94 39t-39 94.5zM227 1358l152 -152l100 101l-151 151z" />
<glyph unicode="&#xe1;" horiz-adv-x="718" d="M74 274.5q0 -57.5 21.5 -107.5t59.5 -87t88 -58.5t107 -21.5q82 0 146 39v-39h131v684q0 57 -21.5 107.5t-59.5 88.5t-88 59.5t-108 21.5q-84 0 -137 -38t-109 -94l101 -102q33 33 64.5 61.5t80.5 28.5q55 0 94 -39t39 -94v-133h-133q-57 0 -107 -21.5t-88 -59.5 t-59.5 -88t-21.5 -107.5zM217 274.5q0 55.5 39 94.5t94 39h142v-134q0 -55 -43.5 -94t-98.5 -39t-94 39t-39 94.5zM238 1309l102 -101l154 152l-103 100z" />
<glyph unicode="&#xe2;" horiz-adv-x="718" d="M72 280.5q0 -57.5 21.5 -107.5t59 -88t88 -59.5t107.5 -21.5q80 0 146 41v-41h131v686q0 57 -21.5 107.5t-59.5 88.5t-88 59.5t-108 21.5q-84 0 -137 -38t-109 -93l101 -103q33 33 64.5 61.5t80.5 28.5q55 0 94 -39t39 -94v-133h-133q-57 0 -107.5 -21.5t-88 -59.5 t-59 -88t-21.5 -107.5zM188 1274l103 -100l71 71l72 -71l101 100l-173 172zM215 280.5q0 55.5 39 94.5t94 39h141v-133q0 -55 -43 -94.5t-98 -39.5t-94 39t-39 94.5z" />
<glyph unicode="&#xe3;" horiz-adv-x="716" d="M51 1251l84 -43q45 113 103 113q27 0 47 -12l43 -27q29 -20 61.5 -36.5t79.5 -16.5q141 0 195 176l-80 43l-37.5 -58.5t-25.5 -32.5t-22.5 -15.5t-25.5 -4.5q-25 0 -45 11.5l-43 25.5q-29 18 -61.5 34.5t-75.5 16.5q-78 0 -125 -46t-72 -128zM74 272q0 -59 21.5 -108 t59.5 -86t88 -57.5t107 -20.5q80 0 146 37v-37h133l-2 682q0 57 -21.5 107.5t-59.5 88t-88 59t-108 21.5q-84 0 -137 -37.5t-109 -93.5l101 -102q33 33 64.5 61.5t80.5 28.5q55 0 94 -39t39 -94v-133h-133q-57 0 -107 -21.5t-88 -59.5t-59.5 -88.5t-21.5 -107.5zM217 272.5 q0 55.5 39 94.5t94 39h142v-134q0 -55 -43 -94t-98.5 -39t-94.5 39t-39 94.5z" />
<glyph unicode="&#xe4;" horiz-adv-x="722" d="M68 280.5q0 -57.5 21.5 -107.5t59 -88t88 -59.5t107.5 -21.5q80 0 145 41v-41l132 -2v688q0 57 -21.5 107.5t-59.5 88.5t-88.5 59.5t-107.5 21.5q-84 0 -137 -38t-109 -93l101 -103q33 33 64.5 61.5t80.5 28.5q55 0 94 -39t39 -94v-133h-133q-57 0 -107.5 -21.5 t-88 -59.5t-59 -88t-21.5 -107.5zM156 1233h143v194h-143v-194zM211 280.5q0 55.5 39 94.5t94 39h141v-133q0 -55 -43 -94.5t-98 -39.5t-94 39t-39 94.5zM465 1233h143v194h-143v-194z" />
<glyph unicode="&#xe5;" horiz-adv-x="714" d="M78 276.5q0 -57.5 21.5 -107.5t59.5 -88t88 -59.5t107 -21.5q80 0 146 41v-41h129l2 686q0 57 -21.5 107.5t-59.5 88.5t-88 59.5t-108 21.5q-84 0 -137 -38t-108 -94l100 -102q33 33 64.5 61.5t80.5 28.5q55 0 94 -39t39 -94v-133h-133q-57 0 -107 -21.5t-88 -59.5 t-59.5 -88t-21.5 -107.5zM221 276.5q0 55.5 39 94.5t94 39h142v-134q0 -55 -43 -94t-98.5 -39t-94.5 39t-39 94.5zM283 1262q41 -41 104 -41q61 0 104.5 43t43.5 104q-4 63 -45 104t-103 41q-63 0 -105 -43q-40 -41 -40 -98q0 -69 41 -110zM319 1368q6 10 13.5 20.5 t5.5 26.5q23 0 49 21q20 -20 49 -21q0 -29 19 -49q-18 -29 -19 -47q-23 0 -49 -21q-20 20 -49 21q-1 26 -19 49z" />
<glyph unicode="&#xe6;" horiz-adv-x="1114" d="M74 276.5q0 -57.5 21.5 -107.5t59.5 -88t88 -59.5t107 -21.5q125 0 205 90q84 -90 205 -90h252v143h-252q-55 0 -94 39t-39 94v134h409v276q0 57 -21.5 107.5t-59 88.5t-88 59.5t-107.5 21.5q-125 0 -205 -91q-84 90 -205 91q-84 0 -137 -38t-109 -94l101 -102 q33 33 64.5 61.5t80.5 28.5q55 0 94 -39t39 -94v-133h-133q-57 0 -107 -21.5t-88 -59.5t-59.5 -88t-21.5 -107.5zM217 276.5q0 55.5 39 94.5t94 39h133v-134q0 -55 -39 -94t-94 -39t-94 39t-39 94.5zM627 553v133q0 55 39 94t94 39t94 -39t39 -94v-133h-266z" />
<glyph unicode="&#xe7;" horiz-adv-x="663" d="M102 276q0 -94 56.5 -168.5t148.5 -97.5v-141q0 -16 -12 -23.5t-28.5 -8.5t-34 0t-27.5 1v-143h71q72 0 123.5 51t51.5 123v141q61 16 97 47t77 74l-101 102q-33 -33 -64.5 -61.5t-80.5 -28.5q-55 0 -94 39t-39 94v410q0 55 39 94t94 39q51 0 82 -28l63 -62l101 102 q-55 55 -108.5 93.5t-137.5 38.5q-57 0 -107.5 -21.5t-88.5 -59.5t-59.5 -88.5t-21.5 -107.5v-410z" />
<glyph unicode="&#xe8;" horiz-adv-x="724" d="M86 283q0 -57 21.5 -107.5t59.5 -88.5t88 -59.5t107 -21.5h244v144h-244q-55 0 -94 38.5t-39 94.5v133h410v276q0 57 -21.5 107.5t-59.5 88.5t-88 59.5t-107.5 21.5t-107.5 -21.5t-88 -59.5t-59.5 -88t-21.5 -108v-409zM229 559v133q0 55 39 94t94.5 39t94.5 -38.5 t39 -94.5v-133h-267zM233 1366l152 -152l100 101l-151 151z" />
<glyph unicode="&#xe9;" horiz-adv-x="724" d="M86 283q0 -57 21.5 -107.5t59.5 -88.5t88 -59.5t107 -21.5h244v144h-244q-55 0 -94 38.5t-39 94.5v133h410v276q0 57 -21.5 107.5t-59.5 88.5t-88 59.5t-107.5 21.5t-107.5 -21.5t-88 -59.5t-59.5 -88t-21.5 -108v-409zM229 559v133q0 55 39 94t94.5 39t94.5 -38.5 t39 -94.5v-133h-267zM252 1307l102 -101l154 152l-102 100z" />
<glyph unicode="&#xea;" horiz-adv-x="724" d="M86 276q0 -57 21.5 -107t59.5 -88t88 -59.5t107 -21.5h244v143h-244q-55 0 -94 39t-39 94v134h410v276q0 57 -21.5 107.5t-59.5 88.5t-88 59.5t-107.5 21.5t-107.5 -21.5t-88 -59.5t-59.5 -88.5t-21.5 -107.5v-410zM211 1266l102 -101l72 72l72 -72l100 101l-172 172z M229 553v133q0 55 39 94t94.5 39t94.5 -39t39 -94v-133h-267z" />
<glyph unicode="&#xeb;" horiz-adv-x="724" d="M86 285q0 -57 21.5 -107.5t59.5 -88.5t88 -59.5t107 -21.5h244v144h-244q-55 0 -94 38.5t-39 94.5v133h410v276q0 57 -21.5 107.5t-59.5 88.5t-88 59.5t-107.5 21.5t-107.5 -21.5t-88 -59.5t-59.5 -88t-21.5 -108v-409zM143 1231h144v194h-144v-194zM229 561v133 q0 55 39 94t94.5 39t94.5 -38.5t39 -94.5v-133h-267zM469 1231h143v194h-143v-194z" />
<glyph unicode="&#xec;" horiz-adv-x="458" d="M102 1370l152 -151l102 100l-151 151zM156 0h143l2 963h-143z" />
<glyph unicode="&#xed;" horiz-adv-x="458" d="M102 1352l101 -101l153 152l-100 100zM143 0h142l2 963h-144v-963z" />
<glyph unicode="&#xee;" horiz-adv-x="550" d="M102 1257l103 -100l71 72l72 -72l101 100l-173 173zM221 0h146v963h-144z" />
<glyph unicode="&#xef;" horiz-adv-x="540" d="M102 1239h144v195h-144v-195zM195 0h143v963h-143v-963zM295 1241h143v195h-143v-195z" />
<glyph unicode="&#xf0;" horiz-adv-x="722" d="M68 276q0 -57 21.5 -107t59 -88t88 -59.5t107.5 -21.5t107.5 21.5t88.5 59.5t59.5 88t21.5 107v922q0 16 -2.5 32.5t-6.5 33.5l136 151l-109 94l-102 -114q-37 37 -86.5 58.5t-106.5 21.5q-84 0 -137 -38t-109 -94l101 -102l63 62q31 29 82 28q59 0 98 -45l-143 -160 l109 -94l69 78v-319q-66 35 -133 34q-57 0 -107.5 -21.5t-88 -59t-59 -88t-21.5 -107.5v-273zM211 276v273q0 55 39 94t94 39t94 -39t39 -94v-273q0 -55 -39 -94t-94 -39t-94 39t-39 94z" />
<glyph unicode="&#xf1;" horiz-adv-x="735" d="M78 1260l84 -43q45 113 102 112q27 0 47 -12l43 -27q29 -20 62 -36.5t80 -16.5q141 0 194 176l-80 43l-37 -58.5t-25 -32.5t-22.5 -15t-25.5 -4q-25 0 -45.5 11t-42.5 25q-29 18 -62 35t-76 17q-78 0 -124.5 -46t-71.5 -128zM94 0h144v692q0 55 39.5 94t95.5 39 q53 0 92 -38.5t39 -94.5v-692h143v692q0 94 -55 169t-148 97h-143q-92 -25 -149.5 -98.5t-57.5 -167.5v-692z" />
<glyph unicode="&#xf2;" horiz-adv-x="716" d="M82 276q0 -57 21.5 -107t59.5 -88t88 -59.5t107.5 -21.5t107.5 21.5t88 59.5t59.5 88t21.5 107v410q0 57 -21.5 107.5t-59.5 88.5t-88 59.5t-107.5 21.5t-107.5 -21.5t-88 -59.5t-59.5 -88.5t-21.5 -107.5v-410zM225 276v410q0 55 39 94t94.5 39t94.5 -39t39 -94v-410 q0 -55 -39 -94t-94.5 -39t-94.5 39t-39 94zM268 1378l152 -151l100 100l-151 152z" />
<glyph unicode="&#xf3;" horiz-adv-x="716" d="M82 276q0 -57 21.5 -107t59.5 -88t88 -59.5t107.5 -21.5t107.5 21.5t88 59.5t59.5 88t21.5 107v410q0 57 -21.5 107.5t-59.5 88.5t-88 59.5t-107.5 21.5t-107.5 -21.5t-88 -59.5t-59.5 -88.5t-21.5 -107.5v-410zM225 276v410q0 55 39 94t94.5 39t94.5 -39t39 -94v-410 q0 -55 -39 -94t-94.5 -39t-94.5 39t-39 94zM262 1323l103 -100l153 151l-102 101z" />
<glyph unicode="&#xf4;" horiz-adv-x="716" d="M82 276q0 -57 21.5 -107t59.5 -88t88 -59.5t107.5 -21.5t107.5 21.5t88 59.5t59.5 88t21.5 107v410q0 57 -21.5 107.5t-59.5 88.5t-88 59.5t-107.5 21.5t-107.5 -21.5t-88 -59.5t-59.5 -88.5t-21.5 -107.5v-410zM178 1266l103 -101l71 72l72 -72l100 101l-172 172z M225 276v410q0 55 39 94t94.5 39t94.5 -39t39 -94v-410q0 -55 -39 -94t-94.5 -39t-94.5 39t-39 94z" />
<glyph unicode="&#xf5;" horiz-adv-x="716" d="M51 1255l84 -43q45 113 103 113q27 0 47 -12l43 -27q29 -20 61.5 -36.5t79.5 -16.5q141 0 195 176l-80 43l-37.5 -58.5t-25.5 -32.5t-22.5 -15.5t-25.5 -4.5q-25 0 -45 11.5l-43 25.5q-29 18 -61.5 35t-75.5 17q-78 0 -125 -46.5t-72 -128.5zM72 276q0 -57 21.5 -107 t59 -88t88 -59.5t108 -21.5t107.5 21.5t88 59.5t59.5 88t21.5 107v410q0 57 -21.5 107.5t-58.5 88.5t-88 59.5t-108.5 21.5t-108 -21.5t-88 -59.5t-59 -88.5t-21.5 -107.5v-410zM215 276v410q0 55 40 94t95 39q53 0 92 -39t39 -94v-410q0 -55 -39 -94t-94 -39t-94 39t-39 94 z" />
<glyph unicode="&#xf6;" horiz-adv-x="716" d="M82 276q0 -57 21.5 -107t59.5 -88t88 -59.5t107.5 -21.5t107.5 21.5t88 59.5t59.5 88t21.5 107v410q0 57 -21.5 107.5t-59.5 88.5t-88 59.5t-107.5 21.5t-107.5 -21.5t-88 -59.5t-59.5 -88.5t-21.5 -107.5v-410zM143 1229h144v194h-144v-194zM225 276v410q0 55 39 94 t94.5 39t94.5 -39t39 -94v-410q0 -55 -39 -94t-94.5 -39t-94.5 39t-39 94zM453 1229h143v194h-143v-194z" />
<glyph unicode="&#xf7;" d="M102 410h553v143h-553v-143zM307 -49h144v192h-144v-192zM307 819h144v195h-144v-195z" />
<glyph unicode="&#xf8;" horiz-adv-x="716" d="M82 276q0 -57 21.5 -107t59.5 -88t88 -59.5t107.5 -21.5t107.5 21.5t88 59.5t59.5 88t21.5 107v410q0 57 -21.5 107.5t-59.5 88.5t-88 59.5t-107.5 21.5t-107.5 -21.5t-88 -59.5t-59.5 -88.5t-21.5 -107.5v-410zM225 322v364q0 55 39 94t94 39q39 0 72 -20zM285 164l12 4 l195 455v-347q0 -55 -39 -94t-95 -39q-40 1 -73 21z" />
<glyph unicode="&#xf9;" horiz-adv-x="724" d="M63 276q0 -57 21.5 -107t59.5 -88t88.5 -59.5t107.5 -21.5h276v963h-143v-820h-133q-55 0 -94 39t-39 94v687h-144v-687zM244 1380l151 -151l101 100l-152 152z" />
<glyph unicode="&#xfa;" horiz-adv-x="724" d="M66 276q0 -57 21.5 -107t59 -88t88 -59.5t107.5 -21.5h276v963h-143v-820h-133q-55 0 -94 39t-39 94v687h-143v-687zM254 1317l102 -100l154 151l-102 100z" />
<glyph unicode="&#xfb;" horiz-adv-x="724" d="M63 276q0 -57 21.5 -107t59.5 -88t88.5 -59.5t107.5 -21.5h276v963h-143v-820h-133q-55 0 -94 39t-39 94v687h-144v-687zM186 1278l103 -100l71 71l72 -71l100 100l-172 172z" />
<glyph unicode="&#xfc;" horiz-adv-x="724" d="M63 276q0 -57 21.5 -107t59.5 -88t88.5 -59.5t107.5 -21.5h276v963h-143v-820h-133q-55 0 -94 39t-39 94v687h-144v-687zM70 1233h143v194h-143v-194zM479 1233h144v194h-144v-194z" />
<glyph unicode="&#xfd;" horiz-adv-x="729" d="M88 276q0 -57 21.5 -107t59.5 -88t88 -59.5t108 -21.5h133v-129q0 -55 -40 -94t-93 -39h-205v-144h205q57 0 107 22t88 59.5t59.5 88t21.5 107.5v1092h-143v-820h-133q-55 0 -94.5 39t-39.5 94v687h-143v-687zM276 1315l103 -101l153 152l-102 100z" />
<glyph unicode="&#xfe;" horiz-adv-x="808" d="M102 -264v-144h195v408h133q57 0 107.5 21.5t88.5 59.5t59.5 88t21.5 107v410q0 57 -21.5 107.5t-59.5 88.5t-88.5 59.5t-107.5 21.5h-133v409h-195v-143h52v-1493h-52zM297 143v676h133q55 0 94 -39t39 -94v-410q0 -55 -39 -94t-94 -39h-133z" />
<glyph unicode="&#xff;" horiz-adv-x="724" d="M88 276q0 -57 21.5 -107t59.5 -88t88 -59.5t108 -21.5h133v-129q0 -55 -40 -94t-93 -39h-220v-144h220q57 0 107 22t88 59.5t59.5 88t21.5 107.5v1092h-143v-820h-133q-55 0 -94.5 39t-39.5 94v687h-143v-687zM94 1235h144v195h-144v-195zM504 1235h143v195h-143v-195z " />
<glyph unicode="&#x20ac;" horiz-adv-x="692" d="M55 557h92v-281q0 -57 21.5 -107t59.5 -88t88.5 -59.5t107.5 -21.5q43 0 75.5 10t61.5 27.5t54 41.5l55 52l-101 102q-33 -33 -64.5 -61.5t-80.5 -28.5q-55 0 -94 39t-39 94v281h303v129h-303v154h307v129h-307v229q0 55 40 94t93 39q49 0 81 -28.5t64 -61.5l101 102 q-55 55 -108.5 93.5t-137.5 38.5q-57 0 -107.5 -21.5t-88.5 -59.5t-59.5 -88.5t-21.5 -107.5v-229h-88v-129h88v-154h-92v-129z" />
<glyph unicode="&#xe000;" horiz-adv-x="965" d="M0 965h965v-965h-965v965z" />
<glyph unicode="&#xfb01;" horiz-adv-x="845" d="M102 0h144v823h205v144h-205v231q0 55 40 94t93 39h72v144h-72q-57 0 -107.5 -21.5t-88.5 -59.5t-59.5 -88.5t-21.5 -107.5v-1198zM592 1251h143v195h-143v-195zM600 0h143v963h-143v-963z" />
<glyph unicode="&#xfb02;" horiz-adv-x="837" d="M102 0h144v823h205v144h-205v231q0 55 40 94t93 39h72v144h-72q-57 0 -107.5 -21.5t-88.5 -59.5t-59.5 -88.5t-21.5 -107.5v-1198zM592 0h143v1475h-143v-1475z" />
<glyph unicode="&#xfb03;" horiz-adv-x="1335" d="M102 0h144v823h205v144h-205v231q0 55 40 94t93 39h72v144h-72q-57 0 -107.5 -21.5t-88.5 -59.5t-59.5 -88.5t-21.5 -107.5v-1198zM592 0h143v823h205v144h-205v231q0 55 40 94t93 39h72v144h-72q-57 0 -107 -21.5t-88 -59.5t-59.5 -88.5t-21.5 -107.5v-1198zM1081 1251 h144v195h-144v-195zM1090 0h143v963h-143v-963z" />
<glyph unicode="&#xfb04;" horiz-adv-x="1327" d="M102 0h144v823h205v144h-205v231q0 55 40 94t93 39h72v144h-72q-57 0 -107.5 -21.5t-88.5 -59.5t-59.5 -88.5t-21.5 -107.5v-1198zM592 0h143v823h205v144h-205v231q0 55 40 94t93 39h72v144h-72q-57 0 -107 -21.5t-88 -59.5t-59.5 -88.5t-21.5 -107.5v-1198zM1081 0h144 v1475h-144v-1475z" />
</font>
</defs>
</svg>
